<svg xmlns="http://www.w3.org/2000/svg" xmlns:xlink="http://www.w3.org/1999/xlink" width="54" height="54" version="1.1" viewBox="0 0 54 54"><title>图形/容器服务-1</title><desc>Created with Sketch.</desc><defs><linearGradient id="linearGradient-1" x1="50%" x2="50%" y1="0%" y2="68.075%"><stop offset="0%" stop-color="#EFEEF8"/><stop offset="100%" stop-color="#E8E6F2"/></linearGradient><linearGradient id="linearGradient-2" x1="50%" x2="50%" y1="0%" y2="68.075%"><stop offset="0%" stop-color="#EFEEF8"/><stop offset="100%" stop-color="#F3F2FA"/></linearGradient><linearGradient id="linearGradient-3" x1="50%" x2="50%" y1="0%" y2="68.075%"><stop offset="0%" stop-color="#EFEEF8"/><stop offset="100%" stop-color="#E8E6F2"/></linearGradient><linearGradient id="linearGradient-4" x1="50%" x2="50%" y1="0%" y2="68.075%"><stop offset="0%" stop-color="#EFEEF8"/><stop offset="100%" stop-color="#E8E6F2"/></linearGradient><linearGradient id="linearGradient-5" x1="50%" x2="50%" y1="0%" y2="68.075%"><stop offset="0%" stop-color="#EFEEF8"/><stop offset="100%" stop-color="#E8E6F2"/></linearGradient><linearGradient id="linearGradient-6" x1="50%" x2="50%" y1="0%" y2="68.075%"><stop offset="0%" stop-color="#EFEEF8"/><stop offset="100%" stop-color="#E8E6F2"/></linearGradient><linearGradient id="linearGradient-7" x1="50%" x2="50%" y1="0%" y2="68.075%"><stop offset="0%" stop-color="#EFEEF8"/><stop offset="100%" stop-color="#E8E6F2"/></linearGradient><linearGradient id="linearGradient-8" x1="50%" x2="50%" y1="0%" y2="68.075%"><stop offset="0%" stop-color="#EFEEF8"/><stop offset="100%" stop-color="#E8E6F2"/></linearGradient></defs><g id="图形/容器服务-1" fill="none" fill-rule="evenodd" stroke="none" stroke-width="1"><g id="编组-3" transform="translate(-8.000000, -7.000000)"><polygon id="Path-2" fill="#FFF" fill-rule="nonzero" points="33.148 13.506 8.455 25.123 8.455 43.785 10.31 46.729 33.148 57.529 35.259 57.529 59.479 45.675 61.175 43.005 61.175 26.785 60.492 25.123 35 13.506"/><polygon id="Path-29" fill="#F7F6FD" points="35 40.745 60.492 28.785 60.492 45.721 35 57.722"/><path id="Path" fill-rule="nonzero" stroke="#E7E6F1" stroke-width="1.112" d="M53.3955837,10.7407369 L43.4463946,36.6476403 C43.3422214,36.918899 43.1262141,37.1321148 42.8536233,37.232751 L17.5376182,46.5790147 C17.0145904,46.7721082 16.4340594,46.5046436 16.2409659,45.9816158 C16.1582865,45.757664 16.1576483,45.511658 16.2391648,45.2872803 L25.0585925,21.0114016 C25.4241263,20.0052531 26.2106426,19.2087881 27.2121173,18.8306368 L52.0965783,9.43440286 C52.6181666,9.23745403 53.200656,9.5006263 53.3976048,10.0222146 C53.4850745,10.2538645 53.4843552,10.5095828 53.3955837,10.7407369 Z" transform="translate(34.849360, 27.985942) rotate(45.000000) translate(-34.849360, -27.985942)"/><line id="Line-2" x1="34.488" x2="34.488" y1="40.795" y2="57.529" fill-rule="nonzero" stroke="#E7E6F1" stroke-width="1.112"/><path id="Path" fill-rule="nonzero" stroke="#E7E6F1" stroke-width="1.112" d="M46.8749745,12.3121438 L57.2015544,22.3878408 C58.3228335,23.4818787 58.7101443,25.125731 58.195231,26.6052748 L49.9661353,50.2506283 C49.5665165,51.3988867 48.6707939,52.305968 47.5276621,52.7200238 L25.3382146,60.7573043 C23.8648581,61.2909715 22.215781,60.9240357 21.1077242,59.8159789 L10.4004302,49.1086849 L10.4004302,49.1086849" transform="translate(34.719735, 36.972018) rotate(45.000000) translate(-34.719735, -36.972018)"/></g><g id="编组-5" transform="translate(8.000000, 2.000000)"><path id="路径-6" fill="url(#linearGradient-1)" d="M0.014812,20.624836 C0.00493733333,23.7284365 -3.55271368e-15,25.7382434 -3.55271368e-15,26.6542567 C-3.55271368e-15,28.0282767 1.5755,29.274124 2.551068,29.274124 C3.526636,29.274124 35.3615746,29.274124 36.5652106,29.274124 C37.7688466,29.274124 38.63264,28.0296567 38.63264,26.6542567 C38.63264,25.7373234 38.5532133,23.7275165 38.39436,20.624836 L35.872732,22.9408581 L13.561925,23.583096 L2.091068,23.257692 L0.014812,20.624836 Z"/><path id="路径-5" fill="url(#linearGradient-2)" d="M1.875972,8.664836 L2.091068,1.27557512 L36.362724,1.27557512 L36.62014,9.48349443 C37.3437507,7.93185548 36.7493387,7.156036 34.836904,7.156036 C31.968252,7.156036 6.091688,7.156036 4.43164,7.156036 C3.32494133,7.156036 2.473052,7.65896933 1.875972,8.664836 Z"/><g id="编组-4" transform="translate(4.360892, 4.723556)"><polygon id="Fill-27" fill="url(#linearGradient-3)" points="0 5.204 2.304 5.204 2.304 0 0 0"/><polygon id="Fill-29" fill="url(#linearGradient-4)" points="27.607 5.204 29.904 5.204 29.904 0 27.607 0"/><polygon id="Fill-31" fill="url(#linearGradient-5)" points="11.047 4.284 13.344 4.284 13.344 0 11.047 0"/><polygon id="Fill-33" fill="url(#linearGradient-5)" points="5.527 4.284 7.824 4.284 7.824 0 5.527 0"/><polygon id="Fill-36" fill="url(#linearGradient-5)" points="22.087 4.284 24.384 4.284 24.384 0 22.087 0"/><polygon id="Fill-38" fill="url(#linearGradient-6)" points="16.56 4.284 18.864 4.284 18.864 0 16.56 0"/><polygon id="Fill-39" fill="url(#linearGradient-3)" points="0 9.266 2.304 9.266 2.304 4.062 0 4.062"/><polygon id="Fill-40" fill="url(#linearGradient-4)" points="27.607 9.266 29.904 9.266 29.904 4.062 27.607 4.062"/><polygon id="Fill-43" fill="url(#linearGradient-4)" points="27.607 13.333 29.904 13.333 29.904 8.128 27.607 8.128"/><polygon id="Fill-44" fill="url(#linearGradient-3)" points="0 13.333 2.304 13.333 2.304 8.128 0 8.128"/><polygon id="Fill-45" fill="url(#linearGradient-3)" points="0 17.4 2.304 17.4 2.304 12.196 0 12.196"/><polygon id="Fill-47" fill="url(#linearGradient-4)" points="27.607 17.4 29.904 17.4 29.904 12.196 27.607 12.196"/><polygon id="Fill-49" fill="url(#linearGradient-7)" points="0 17.782 2.304 17.782 2.304 16.257 0 16.257"/><polygon id="Fill-51" fill="url(#linearGradient-8)" points="27.607 17.782 29.904 17.782 29.904 16.257 27.607 16.257"/><polygon id="Fill-53" fill="url(#linearGradient-8)" points="22.087 17.782 24.384 17.782 24.384 16.257 22.087 16.257"/><polygon id="Fill-55" fill="url(#linearGradient-7)" points="16.56 17.782 18.864 17.782 18.864 16.257 16.56 16.257"/><polygon id="Fill-57" fill="url(#linearGradient-8)" points="11.047 17.782 13.344 17.782 13.344 16.257 11.047 16.257"/><polygon id="Fill-59" fill="url(#linearGradient-8)" points="5.527 17.782 7.824 17.782 7.824 16.257 5.527 16.257"/></g><g id="编组-2" fill="#CECBE1" transform="translate(4.360892, 3.094236)"><polygon id="Fill-28" points="27.607 1.629 29.904 1.629 29.904 0 27.607 0"/><polygon id="Fill-30" points="11.047 1.629 13.344 1.629 13.344 0 11.047 0"/><polygon id="Fill-32" points="5.527 1.629 7.824 1.629 7.824 0 5.527 0"/><polygon id="Fill-34" points="0 1.629 2.304 1.629 2.304 0 0 0"/><polygon id="Fill-35" points="22.087 1.629 24.384 1.629 24.384 0 22.087 0"/><polygon id="Fill-37" points="16.56 1.629 18.864 1.629 18.864 0 16.56 0"/><polygon id="Fill-41" points="27.607 5.691 29.904 5.691 29.904 4.062 27.607 4.062"/><polygon id="Fill-42" points="0 5.691 2.304 5.691 2.304 4.062 0 4.062"/><polygon id="Fill-46" points="0 13.826 2.304 13.826 2.304 12.196 0 12.196"/><polygon id="Fill-48" points="27.607 13.826 29.904 13.826 29.904 12.196 27.607 12.196"/><polygon id="Fill-50" points="27.607 17.888 29.904 17.888 29.904 16.264 27.607 16.264"/><polygon id="Fill-52" points="22.087 17.888 24.384 17.888 24.384 16.264 22.087 16.264"/><polygon id="Fill-54" points="16.56 17.888 18.864 17.888 18.864 16.264 16.56 16.264"/><polygon id="Fill-56" points="11.047 17.888 13.344 17.888 13.344 16.264 11.047 16.264"/><polygon id="Fill-58" points="5.527 17.888 7.824 17.888 7.824 16.264 5.527 16.264"/><polygon id="Fill-60" points="0 17.888 2.304 17.888 2.304 16.264 0 16.264"/><polygon id="Fill-62" points="0 9.758 2.304 9.758 2.304 8.129 0 8.129"/><polygon id="Fill-63" points="27.607 9.758 29.904 9.758 29.904 8.129 27.607 8.129"/></g><path id="Fill-61" fill="#CECBE1" d="M35.41632,20.98152 L35.41632,3.09396 C35.41632,2.66064 35.05016,2.35336 34.48896,2.2908 L34.26448,2.27976 L4.3608,2.27976 C3.74808,2.27976 3.3212,2.5392 3.23196,2.93572 L3.21632,3.09396 L3.21632,20.98152 C3.21632,21.42036 3.57604,21.72212 4.15196,21.78008 L4.3608,21.79572 L34.26448,21.79572 C34.87812,21.79572 35.31144,21.5372 35.39424,21.13976 L35.41632,20.98152 M38.61792,1.52352 L38.63264,1.72408 L38.63264,22.35692 C38.63264,23.2346 37.69792,23.95864 36.501,24.05984 L36.22408,24.06996 L2.40856,24.06996 C1.17484,24.06996 0.14996,23.40388 0.01564,22.55748 L-2.13162821e-14,22.35692 L-2.13162821e-14,1.72408 C-2.13162821e-14,0.8464 0.93564,0.11132 2.12428,0.01564 L2.40856,5.32907052e-15 L36.22408,5.32907052e-15 C37.45872,5.32907052e-15 38.47532,0.6716 38.61792,1.52352"/></g></g></svg>