<svg xmlns="http://www.w3.org/2000/svg" xmlns:xlink="http://www.w3.org/1999/xlink" width="54" height="54" version="1.1" viewBox="0 0 54 54"><title>图形/dcos-1</title><desc>Created with Sketch.</desc><defs><linearGradient id="linearGradient-1" x1="50%" x2="50%" y1="0%" y2="68.075%"><stop offset="0%" stop-color="#EFEEF8"/><stop offset="100%" stop-color="#E8E6F2"/></linearGradient><linearGradient id="linearGradient-2" x1="50%" x2="50%" y1="0%" y2="68.075%"><stop offset="0%" stop-color="#EFEEF8"/><stop offset="100%" stop-color="#E8E6F2"/></linearGradient><linearGradient id="linearGradient-3" x1="50%" x2="50%" y1="0%" y2="68.075%"><stop offset="0%" stop-color="#EFEEF8"/><stop offset="100%" stop-color="#E8E6F2"/></linearGradient><linearGradient id="linearGradient-4" x1="50%" x2="50%" y1="0%" y2="68.075%"><stop offset="0%" stop-color="#EFEEF8"/><stop offset="100%" stop-color="#E8E6F2"/></linearGradient><linearGradient id="linearGradient-5" x1="50%" x2="50%" y1="0%" y2="68.075%"><stop offset="0%" stop-color="#EFEEF8"/><stop offset="100%" stop-color="#E8E6F2"/></linearGradient><linearGradient id="linearGradient-6" x1="50%" x2="50%" y1="0%" y2="68.075%"><stop offset="0%" stop-color="#EFEEF8"/><stop offset="100%" stop-color="#E8E6F2"/></linearGradient><linearGradient id="linearGradient-7" x1="50%" x2="50%" y1="0%" y2="68.075%"><stop offset="0%" stop-color="#EFEEF8"/><stop offset="100%" stop-color="#E8E6F2"/></linearGradient><linearGradient id="linearGradient-8" x1="50%" x2="50%" y1="0%" y2="68.075%"><stop offset="0%" stop-color="#EFEEF8"/><stop offset="100%" stop-color="#E8E6F2"/></linearGradient><linearGradient id="linearGradient-9" x1="50%" x2="50%" y1="0%" y2="68.075%"><stop offset="0%" stop-color="#EFEEF8"/><stop offset="100%" stop-color="#E8E6F2"/></linearGradient><linearGradient id="linearGradient-10" x1="50%" x2="50%" y1="0%" y2="68.075%"><stop offset="0%" stop-color="#EFEEF8"/><stop offset="100%" stop-color="#E8E6F2"/></linearGradient><linearGradient id="linearGradient-11" x1="50%" x2="50%" y1="0%" y2="68.075%"><stop offset="0%" stop-color="#EFEEF8"/><stop offset="100%" stop-color="#E8E6F2"/></linearGradient><linearGradient id="linearGradient-12" x1="50%" x2="50%" y1="0%" y2="68.075%"><stop offset="0%" stop-color="#EFEEF8"/><stop offset="100%" stop-color="#E8E6F2"/></linearGradient><linearGradient id="linearGradient-13" x1="50%" x2="50%" y1="0%" y2="68.075%"><stop offset="0%" stop-color="#EFEEF8"/><stop offset="100%" stop-color="#E8E6F2"/></linearGradient><linearGradient id="linearGradient-14" x1="50%" x2="50%" y1="0%" y2="68.075%"><stop offset="0%" stop-color="#EFEEF8"/><stop offset="100%" stop-color="#E8E6F2"/></linearGradient><linearGradient id="linearGradient-15" x1="50%" x2="50%" y1="0%" y2="68.075%"><stop offset="0%" stop-color="#EFEEF8"/><stop offset="100%" stop-color="#E8E6F2"/></linearGradient><linearGradient id="linearGradient-16" x1="50%" x2="50%" y1="0%" y2="68.075%"><stop offset="0%" stop-color="#EFEEF8"/><stop offset="100%" stop-color="#E8E6F2"/></linearGradient><linearGradient id="linearGradient-17" x1="50%" x2="50%" y1="0%" y2="68.075%"><stop offset="0%" stop-color="#EFEEF8"/><stop offset="100%" stop-color="#E8E6F2"/></linearGradient></defs><g id="图形/dcos-1" fill="none" fill-rule="evenodd" stroke="none" stroke-width="1"><g id="编组-3" transform="translate(-8.000000, -7.000000)"><polygon id="Path-2" fill="#FFF" fill-rule="nonzero" points="33.148 13.506 8.455 25.123 8.455 43.785 10.31 46.729 33.148 57.529 35.259 57.529 59.479 45.675 61.175 43.005 61.175 26.785 60.492 25.123 35 13.506"/><polygon id="Path-29" fill="#F7F6FD" points="35 40.745 60.492 28.785 60.492 45.721 35 57.722"/><path id="Path" fill-rule="nonzero" stroke="#E7E6F1" stroke-width="1.112" d="M53.3955837,10.7407369 L43.4463946,36.6476403 C43.3422214,36.918899 43.1262141,37.1321148 42.8536233,37.232751 L17.5376182,46.5790147 C17.0145904,46.7721082 16.4340594,46.5046436 16.2409659,45.9816158 C16.1582865,45.757664 16.1576483,45.511658 16.2391648,45.2872803 L25.0585925,21.0114016 C25.4241263,20.0052531 26.2106426,19.2087881 27.2121173,18.8306368 L52.0965783,9.43440286 C52.6181666,9.23745403 53.200656,9.5006263 53.3976048,10.0222146 C53.4850745,10.2538645 53.4843552,10.5095828 53.3955837,10.7407369 Z" transform="translate(34.849360, 27.985942) rotate(45.000000) translate(-34.849360, -27.985942)"/><line id="Line-2" x1="34.488" x2="34.488" y1="40.795" y2="57.529" fill-rule="nonzero" stroke="#E7E6F1" stroke-width="1.112"/><path id="Path" fill-rule="nonzero" stroke="#E7E6F1" stroke-width="1.112" d="M46.8749745,12.3121438 L57.2015544,22.3878408 C58.3228335,23.4818787 58.7101443,25.125731 58.195231,26.6052748 L49.9661353,50.2506283 C49.5665165,51.3988867 48.6707939,52.305968 47.5276621,52.7200238 L25.3382146,60.7573043 C23.8648581,61.2909715 22.215781,60.9240357 21.1077242,59.8159789 L10.4004302,49.1086849 L10.4004302,49.1086849" transform="translate(34.719735, 36.972018) rotate(45.000000) translate(-34.719735, -36.972018)"/></g><g id="编组" transform="translate(6.000000, 4.000000)"><polygon id="Fill-1" fill="url(#linearGradient-1)" points="5.52 6.584 35.388 6.584 35.388 1.735 5.52 1.735"/><polygon id="Fill-4" fill="url(#linearGradient-2)" points="18.454 9.353 18.454 14.202 4.977 8.136 4.977 3.287"/><polygon id="Fill-5" fill="url(#linearGradient-3)" points="36.35 3.1 36.35 7.949 22.448 14.201 22.448 9.353"/><polygon id="Fill-6" fill="url(#linearGradient-4)" points="10.719 12.837 10.719 17.686 2.433 8.106 2.433 3.257"/><polygon id="Fill-7" fill="url(#linearGradient-5)" points="38.482 3.538 38.482 8.387 30.371 17.77 30.371 12.921"/><polygon id="Fill-8" fill="url(#linearGradient-6)" points="20.455 10.255 20.455 15.103 13.639 18.163 13.639 13.315"/><polygon id="Fill-9" fill="url(#linearGradient-7)" points="27.451 13.403 27.451 18.252 20.454 15.103 20.454 10.254"/><polygon id="Fill-13" fill="url(#linearGradient-8)" points="36.343 17.405 36.343 22.253 29.255 19.065 29.255 14.216"/><polygon id="Fill-55" fill="url(#linearGradient-9)" points="29.256 14.216 29.256 19.065 24.427 24.653 24.427 19.805"/><path id="Fill-10" fill="url(#linearGradient-10)" d="M0.928571429,16.7986286 L0.809428571,21.7412571 C0.5,21.4675293 0.0714285714,20.9096522 0.0714285714,20.5350807 L0.0714285714,15.5363154 C0.0714285714,15.9108869 0.433914286,16.4832 0.719342857,16.7986286"/><polygon id="Fill-14" fill="url(#linearGradient-11)" points="11.834 14.128 11.834 18.976 4.559 22.253 4.559 17.404"/><path id="Clip-54" fill="url(#linearGradient-12)" d="M0.809428571,16.8915429 C1.30485714,17.3749714 2.078,17.5824 2.85885714,17.6312571 C3.43742857,17.6604 4.03657143,17.6406857 4.55857143,17.4049714 L4.55857143,22.2529714 C4.03657143,22.4895429 3.43742857,22.5092571 2.85885714,22.4801143 C2.078,22.4304 1.30485714,22.2238286 0.809428571,21.7412571 L0.809428571,16.8915429 Z"/><polygon id="Fill-56" fill="url(#linearGradient-13)" points="16.74 19.804 16.74 24.653 11.834 18.976 11.834 14.128"/><path id="Clip-58" fill="url(#linearGradient-14)" d="M16.7402857,19.8041143 C17.1234286,20.2472571 17.6668571,20.5729714 18.2522857,20.8292571 C18.4271429,20.9081143 18.6217143,20.9578286 18.8094286,21.0118286 L18.8094286,25.8598286 C18.6217143,25.8058286 18.4271429,25.7569714 18.2522857,25.6781143 C17.6668571,25.4218286 17.1234286,25.0969714 16.7402857,24.6529714 L16.7402857,19.8041143 Z"/><path id="Clip-76" fill="url(#linearGradient-15)" d="M24.4271429,19.8041143 L24.4271429,24.6529714 C24.05,25.0866857 23.5417143,25.4509714 22.9288571,25.7124 C22.2731429,25.9935429 21.5411429,26.1015429 20.8237143,26.1315429 C20.6145714,26.1409714 20.42,26.1212571 20.2177143,26.1118286 C19.73,26.0869714 19.256,26.0029714 18.8094286,25.8598286 L18.8094286,21.0118286 C19.256,21.1549714 19.73,21.2381143 20.2177143,21.2629714 C20.42,21.2724 20.6145714,21.2921143 20.8237143,21.2826857 C21.5411429,21.2526857 22.2731429,21.1446857 22.9288571,20.8635429 C23.5417143,20.6029714 24.05,20.2378286 24.4271429,19.8041143 Z"/><path id="Clip-40" fill="url(#linearGradient-16)" d="M36.3431429,17.4049714 C36.8797143,17.6458286 37.4925714,17.6561143 38.078,17.6218286 L38.078,22.4698286 C37.4925714,22.5049714 36.8797143,22.4946857 36.3431429,22.2529714 L36.3431429,17.4049714 Z"/><path id="Clip-30" fill="url(#linearGradient-17)" d="M41.1087976,15.0653633 L41.2394066,20.5222153 C41.2394066,20.8967867 40.6349202,21.4752396 40.1140571,21.7963748 C39.5931941,22.11751 38.894,22.4106857 38.078,22.4698286 L38.078,17.6218286 C38.894,17.5626857 39.7091429,17.3304 40.1822857,16.7989714 C40.4685714,16.4826857 41.1087976,15.4399348 41.1087976,15.0653633 Z"/><path id="Fill-77" fill="#CECBE1" stroke="#CECBE1" stroke-width=".7" d="M38.6228571,15.522 L38.6228571,3.31628571 L30.5117143,12.6985714 L37.6337143,15.9017143 C37.7382857,15.9505714 37.8565714,15.9754286 37.9748571,15.9754286 C38.1634286,15.9754286 38.3442857,15.9214286 38.4694286,15.8228571 L38.5182857,15.7688571 C38.5817143,15.6891429 38.6228571,15.606 38.6228571,15.522 M3.55028571,15.9017143 L10.86,12.6145714 L2.574,3.036 L2.574,3.07971429 L2.56714286,3.18342857 L2.56714286,15.522 C2.56714286,15.606 2.60228571,15.6891429 2.66485714,15.7688571 L2.72057143,15.8228571 C2.84571429,15.9214286 3.02742857,15.9754286 3.20828571,15.9754286 C3.32657143,15.9754286 3.44485714,15.9505714 3.55028571,15.9017143 M5.118,3.06514286 L12.6651429,11.802 L18.5948571,9.13114286 L5.118,3.06514286 M28.7065714,11.8851429 L36.4902857,2.87828571 L22.5882857,9.13114286 L28.7065714,11.8851429 M22.7348571,18.7988571 L27.5914286,13.182 L20.5954286,10.0328571 L13.7802857,13.0928571 L18.7131429,18.7988571 C19.1177143,19.2668571 19.794,19.464 20.5114286,19.5085714 C20.5954286,19.5137143 20.6434286,19.5925714 20.7274286,19.5925714 C21.0968571,19.5925714 21.4731429,19.5334286 21.8211429,19.4048571 L21.954,19.3508571 C22.2677143,19.2128571 22.5394286,19.0208571 22.7348571,18.7988571 M35.5294286,1.51285714 L5.66142857,1.51285714 L20.5954286,8.23885714 L35.5294286,1.51285714 M37.452,0.108857143 C39.3617143,0.483428571 40.7691429,1.71514286 40.7691429,3.18342857 L40.7691429,15.522 C40.7691429,15.8965714 40.6088571,16.2608571 40.3234286,16.5762857 C39.8494286,17.1085714 39.0342857,17.3408571 38.2191429,17.3991429 C37.6337143,17.4334286 37.02,17.424 36.4834286,17.1822857 L29.3965714,13.9945714 L24.5674286,19.5822857 C24.1911429,20.016 23.682,20.3802857 23.0691429,20.6417143 C22.4142857,20.9228571 21.6822857,21.0308571 20.964,21.0608571 C20.7557143,21.0702857 20.5602857,21.0505714 20.358,21.0411429 C19.8702857,21.0162857 19.3962857,20.9322857 18.9505714,20.79 C18.7628571,20.736 18.5674286,20.6862857 18.3925714,20.6074286 C17.808,20.3511429 17.2645714,20.0254286 16.8805714,19.5822857 L11.9751429,13.9054286 L4.69971429,17.1822857 C4.17685714,17.4188571 3.57771429,17.4385714 2.99914286,17.4094286 C2.21914286,17.3605714 1.44514286,17.1531429 0.950571429,16.6697143 L0.859714286,16.5762857 C0.574285714,16.2608571 0.420857143,15.8965714 0.420857143,15.522 L0.420857143,3.18342857 C0.420857143,1.42457143 2.43514286,-4.4408921e-14 4.92257143,-4.4408921e-14 L36.5254286,-4.4408921e-14 C36.8391429,-4.4408921e-14 37.1528571,0.0394285714 37.452,0.108857143"/></g></g></svg>