<svg xmlns="http://www.w3.org/2000/svg" xmlns:xlink="http://www.w3.org/1999/xlink" id="图层_1" x="0" y="0" version="1.1" viewBox="0 0 54 54" xml:space="preserve" style="enable-background:new 0 0 54 54"><style type="text/css">.st0{fill:#fff}.st1{fill:#f6f4fe}.st2{fill:none;stroke:#e7e6f1;stroke-width:1.1124}.st3{fill:url(#路径-4_3_)}.st4{fill:url(#路径-3_3_)}.st5{fill:#6a549e}.st6{fill:url(#路径-4_4_)}.st7{fill:url(#路径-3_4_)}.st8{fill:url(#路径-4_5_)}.st9{fill:url(#路径-3_5_)}</style><title>图形/edas</title><desc>Created with Sketch.</desc><polygon id="Path-2" points="25.1 6.5 .5 18.1 .5 36.8 2.3 39.7 25.1 50.5 27.3 50.5 51.5 38.7 53.2 36 53.2 19.8 52.5 18.1 27 6.5" class="st0"/><polygon id="Path-29" points="27 33.7 52.5 21.8 52.5 38.7 27 50.7" class="st1"/><path id="Path" d="M52.2,21.9L26.8,33.2c-0.3,0.1-0.6,0.1-0.8,0L1.5,21.9C1,21.7,0.7,21.1,1,20.6	c0.1-0.2,0.3-0.4,0.5-0.5L24.9,9.1c1-0.5,2.1-0.5,3.1,0l24.2,11c0.5,0.2,0.7,0.8,0.5,1.3C52.6,21.6,52.4,21.8,52.2,21.9z" class="st2"/><line id="Line-2" x1="26.5" x2="26.5" y1="33.8" y2="50.5" class="st2"/><path id="Path_1_" d="M52.8,21.1l0.2,14.4c0,1.6-0.9,3-2.3,3.7L28.1,50.1c-1.1,0.5-2.4,0.5-3.5,0l-21.4-10	c-1.4-0.7-2.3-2.1-2.3-3.7l0-15.1l0,0" class="st2"/><linearGradient id="路径-4_3_" x1="-351.183" x2="-351.183" y1="389.762" y2="389.082" gradientTransform="matrix(18.31 0 0 -9.7286 6456.6973 3793.5229)" gradientUnits="userSpaceOnUse"><stop offset="0" style="stop-color:#e7e4f7"/><stop offset="1" style="stop-color:#cac4ec"/></linearGradient><path id="路径-4" d="M19,11.4l5-3.9c1.4-1.1,3.4-1.1,4.8-0.1l5.5,4l0,0l1.4-4.3l-6.3-4.3l-3.1-1.2l-2.5,0.7l-6.4,5.6	L19,11.4z" class="st3"/><linearGradient id="路径-3_3_" x1="-355.219" x2="-355.219" y1="400.974" y2="400.293" gradientTransform="matrix(22.8494 0 0 -13.7646 8142.9731 5527.5537)" gradientUnits="userSpaceOnUse"><stop offset="0" style="stop-color:#e7e4f7"/><stop offset="1" style="stop-color:#cac4ec"/></linearGradient><path id="路径-3" d="M15,8.4l0,5.2c0,1.4,0.7,2.6,1.8,3.4l6.6,4.3c1.6,1,3.7,1.1,5.3,0.1l7.2-4.4	c1.2-0.7,1.9-2.1,1.9-3.5l-0.1-5.2l0,0l-9.4,6.7h-6.2L15,8.4z" class="st4"/><path id="Fill-77" d="M33.1,9.7c0.9-0.6,0.9-1.7,0.1-2.3l-0.1,0l-5-3.6c-0.2-0.2-0.5-0.3-0.8-0.4c-0.1,0-0.2,0-0.3,0	c-0.2,0-0.4-0.1-0.6-0.1c-0.6,0-1.2,0.2-1.6,0.4l-0.1,0l-5,3.6C18.8,8,18.7,9,19.6,9.7l0.1,0l5,3.6c0.2,0.2,0.5,0.3,0.8,0.4	c0.1,0,0.1,0,0.2,0c0.2,0.1,0.5,0.1,0.7,0.1c0.6,0,1.2-0.1,1.6-0.4l0.1,0L33.1,9.7L33.1,9.7z M35.9,5.4c2.5,1.8,2.5,4.6,0,6.3	l-5,3.6c-0.6,0.4-1.3,0.8-2.1,1c-0.8,0.2-1.6,0.3-2.4,0.3s-1.6-0.1-2.4-0.3c-0.8-0.2-1.5-0.5-2.1-1l-5-3.6c-2.5-1.8-2.5-4.6,0-6.3	l5-3.6c0.6-0.4,1.3-0.8,2.1-1c0.8-0.2,1.6-0.3,2.4-0.3s1.6,0.1,2.4,0.3c0.8,0.2,1.5,0.5,2.1,1L35.9,5.4z" class="st5"/><linearGradient id="路径-4_4_" x1="-351.183" x2="-351.183" y1="389.762" y2="389.082" gradientTransform="matrix(18.31 0 0 -9.7286 6444.0972 3805.0229)" gradientUnits="userSpaceOnUse"><stop offset="0" style="stop-color:#e7e4f7"/><stop offset="1" style="stop-color:#cac4ec"/></linearGradient><path id="路径-4_1_" d="M6.4,22.9l5-3.9c1.4-1.1,3.4-1.1,4.8-0.1l5.5,4l0,0l1.4-4.3l-6.3-4.3l-3.1-1.2l-2.5,0.7	l-6.4,5.6L6.4,22.9z" class="st6"/><linearGradient id="路径-3_4_" x1="-355.207" x2="-355.207" y1="396.38" y2="395.699" gradientTransform="matrix(22.8325 0 0 -11.7646 8124.1113 4683.0537)" gradientUnits="userSpaceOnUse"><stop offset="0" style="stop-color:#e7e4f7"/><stop offset="1" style="stop-color:#cac4ec"/></linearGradient><path id="路径-3_1_" d="M2.4,19.9l0,3.2c0,1.4,0.7,2.6,1.8,3.4l6.6,4.3c1.6,1,3.7,1.1,5.3,0.1l7.2-4.4	c1.2-0.7,2-2.1,1.9-3.5l-0.1-3.2l0,0l-9.4,6.7H9.6L2.4,19.9z" class="st7"/><path id="Fill-77_1_" d="M20.5,21.2c0.9-0.6,0.9-1.7,0.1-2.3l-0.1,0l-5-3.6c-0.2-0.2-0.5-0.3-0.8-0.4	c-0.1,0-0.2,0-0.3,0c-0.2,0-0.4-0.1-0.6-0.1c-0.6,0-1.2,0.2-1.6,0.4l-0.1,0l-5,3.6c-0.9,0.6-0.9,1.7-0.1,2.3l0.1,0l5,3.6	c0.2,0.2,0.5,0.3,0.8,0.4c0.1,0,0.1,0,0.2,0c0.2,0.1,0.5,0.1,0.7,0.1c0.6,0,1.2-0.1,1.6-0.4l0.1,0L20.5,21.2L20.5,21.2z M23.3,16.9	c2.5,1.8,2.5,4.6,0,6.3l-5,3.6c-0.6,0.4-1.3,0.8-2.1,1c-0.8,0.2-1.6,0.3-2.4,0.3s-1.6-0.1-2.4-0.3s-1.5-0.5-2.1-1l-5-3.6	c-2.5-1.8-2.5-4.6,0-6.3l5-3.6c0.6-0.4,1.3-0.8,2.1-1c0.8-0.2,1.6-0.3,2.4-0.3s1.6,0.1,2.4,0.3c0.8,0.2,1.5,0.5,2.1,1L23.3,16.9z" class="st5"/><linearGradient id="路径-4_5_" x1="-351.183" x2="-351.183" y1="389.762" y2="389.082" gradientTransform="matrix(18.31 0 0 -9.7286 6469.9971 3805.0229)" gradientUnits="userSpaceOnUse"><stop offset="0" style="stop-color:#e7e4f7"/><stop offset="1" style="stop-color:#cac4ec"/></linearGradient><path id="路径-4_2_" d="M32.3,22.9l5-3.9c1.4-1.1,3.4-1.1,4.8-0.1l5.5,4l0,0l1.4-4.3l-6.3-4.3l-3.1-1.2l-2.5,0.7	l-6.4,5.6L32.3,22.9z" class="st8"/><linearGradient id="路径-3_5_" x1="-355.207" x2="-355.207" y1="396.38" y2="395.699" gradientTransform="matrix(22.8325 0 0 -11.7646 8150.0117 4683.0537)" gradientUnits="userSpaceOnUse"><stop offset="0" style="stop-color:#e7e4f7"/><stop offset="1" style="stop-color:#cac4ec"/></linearGradient><path id="路径-3_2_" d="M28.3,19.9l0,3.2c0,1.4,0.7,2.6,1.8,3.4l6.6,4.3c1.6,1,3.7,1.1,5.3,0.1l7.2-4.4	c1.2-0.7,2-2.1,1.9-3.5l-0.1-3.2l0,0l-9.4,6.7h-6.2L28.3,19.9z" class="st9"/><path id="Fill-77_2_" d="M46.4,21.2c0.9-0.6,0.9-1.7,0.1-2.3l-0.1,0l-5-3.6c-0.2-0.2-0.5-0.3-0.8-0.4	c-0.1,0-0.2,0-0.3,0c-0.2,0-0.4-0.1-0.6-0.1c-0.6,0-1.2,0.2-1.6,0.4l-0.1,0l-5,3.6c-0.9,0.6-0.9,1.7-0.1,2.3l0.1,0l5,3.6	c0.2,0.2,0.5,0.3,0.8,0.4c0.1,0,0.1,0,0.2,0c0.2,0.1,0.5,0.1,0.7,0.1c0.6,0,1.2-0.1,1.6-0.4l0.1,0L46.4,21.2L46.4,21.2z M49.2,16.9	c2.5,1.8,2.5,4.6,0,6.3l-5,3.6c-0.6,0.4-1.3,0.8-2.1,1s-1.6,0.3-2.4,0.3s-1.6-0.1-2.4-0.3s-1.5-0.5-2.1-1l-5-3.6	c-2.5-1.8-2.5-4.6,0-6.3l5-3.6c0.6-0.4,1.3-0.8,2.1-1c0.8-0.2,1.6-0.3,2.4-0.3s1.6,0.1,2.4,0.3c0.8,0.2,1.5,0.5,2.1,1L49.2,16.9z" class="st5"/></svg>