<svg xmlns="http://www.w3.org/2000/svg" xmlns:xlink="http://www.w3.org/1999/xlink" width="120" height="100" version="1.1" viewBox="0 0 120 100"><title>aly_2</title><desc>Created with Sketch.</desc><defs><linearGradient id="linearGradient-1" x1="48.978%" x2="48.978%" y1="0%" y2="85.511%"><stop offset="0%" stop-color="#E2DFEE"/><stop offset="100%" stop-color="#F3F5F8" stop-opacity="0"/></linearGradient><linearGradient id="linearGradient-2" x1="48.978%" x2="48.978%" y1="0%" y2="85.511%"><stop offset="0%" stop-color="#E2DFEE"/><stop offset="100%" stop-color="#F3F5F8" stop-opacity="0"/></linearGradient><linearGradient id="linearGradient-3" x1="50%" x2="50%" y1="118.903%" y2="50%"><stop offset="0%" stop-color="#F5F4F8"/><stop offset="100%" stop-color="#E0DCE9"/></linearGradient><linearGradient id="linearGradient-4" x1="50%" x2="50%" y1="118.903%" y2="50%"><stop offset="0%" stop-color="#F5F4F8"/><stop offset="100%" stop-color="#E0DCE9"/></linearGradient><linearGradient id="linearGradient-5" x1="50%" x2="50%" y1="118.903%" y2="50%"><stop offset="0%" stop-color="#F5F4F8"/><stop offset="100%" stop-color="#E0DCE9"/></linearGradient><linearGradient id="linearGradient-6" x1="50%" x2="50%" y1="118.903%" y2="50%"><stop offset="0%" stop-color="#F5F4F8"/><stop offset="100%" stop-color="#E0DCE9"/></linearGradient><linearGradient id="linearGradient-7" x1="50%" x2="50%" y1="118.903%" y2="50%"><stop offset="0%" stop-color="#F5F4F8"/><stop offset="100%" stop-color="#E0DCE9"/></linearGradient><linearGradient id="linearGradient-8" x1="50%" x2="50%" y1="118.903%" y2="50%"><stop offset="0%" stop-color="#F5F4F8"/><stop offset="100%" stop-color="#E0DCE9"/></linearGradient><linearGradient id="linearGradient-9" x1="50%" x2="50%" y1="118.903%" y2="50%"><stop offset="0%" stop-color="#F5F4F8"/><stop offset="100%" stop-color="#E0DCE9"/></linearGradient></defs><g id="0824-云资源引导信息" fill="none" fill-rule="evenodd" stroke="none" stroke-width="1"><g id="aly"><rect id="矩形" width="120" height="100" x="0" y="0"/><g id="编组-3" opacity=".8" transform="translate(0.000000, 3.000000)"><ellipse id="椭圆形" cx="56.2" cy="77.6" fill="url(#linearGradient-1)" rx="49.2" ry="15.6"/><rect id="矩形" width="9.6" height="33.6" x="10.8" y="22.8" fill="url(#linearGradient-2)" rx="4.704" transform="translate(15.600000, 39.600000) rotate(45.000000) translate(-15.600000, -39.600000)"/><rect id="矩形" width="9.6" height="33.6" x="94.8" y="42" fill="url(#linearGradient-2)" rx="4.704" transform="translate(99.600000, 58.800000) rotate(45.000000) translate(-99.600000, -58.800000)"/><rect id="矩形" width="9.6" height="33.6" x="91.2" y="-1.2" fill="url(#linearGradient-2)" rx="4.704" transform="translate(96.000000, 15.600000) rotate(45.000000) translate(-96.000000, -15.600000)"/></g><g id="编组-6" transform="translate(21.000000, 37.000000)"><polygon id="Fill-1" fill="url(#linearGradient-3)" points="30.888 .001 30.888 10.822 29.155 15.889 29.155 5.065"/><polygon id="Fill-3" fill="url(#linearGradient-4)" points="42.86 5.088 42.86 15.912 41.186 10.844 41.186 .02"/><path id="形状结合" fill="url(#linearGradient-5)" d="M42.8592168,15.9106464 L42.8592168,5.0864544 L59.10084,7.6641984 C60.591672,7.9175664 61.696944,8.8245504 61.696944,9.9849024 L61.696944,20.8054224 C61.696944,19.6487424 60.591672,18.7380864 59.10084,18.4847184 L42.8592168,15.9106464 Z"/><path id="形状结合" fill="url(#linearGradient-6)" d="M12.9147912,6.23440937 L12.914424,18.4847184 C11.482344,18.7380864 10.435824,19.6487424 10.351368,20.8054224 L10.349532,7.9450416 L12.9147912,6.23440937 Z M29.1560472,5.0662584 L29.1560472,15.8904504 L12.9147912,18.4865544 L12.9147912,7.6660344 L29.1560472,5.0662584 Z"/><polygon id="Fill-27" fill="url(#linearGradient-7)" points="25.961 27.153 46.201 27.153 46.205 18.724 25.965 18.724"/><path id="路径-8" fill="url(#linearGradient-8)" d="M7.67386155e-15,22.7770704 C7.67386155e-15,29.6560607 7.67386155e-15,33.5096519 7.67386155e-15,34.337844 C7.67386155e-15,36.2583 2.85546714,42.109632 10.584,42.109632 C15.7363552,42.109632 22.4850592,42.109632 30.830112,42.109632 L30.830112,32.2188624 L23.1593842,31.27626 L7.7783976,29.3128416 L7.67386155e-15,22.7770704 Z"/><path id="路径-8备份" fill="url(#linearGradient-9)" d="M41.1862536,22.7770704 C41.1862536,29.6560607 41.1862536,33.5096519 41.1862536,34.337844 C41.1862536,36.2583 44.1728111,42.109632 51.901344,42.109632 C57.0536992,42.109632 63.8024032,42.109632 72.147456,42.109632 L72.147456,32.2188624 L64.4767282,31.27626 L49.0957416,29.3128416 L41.1862536,22.7770704 Z" transform="translate(56.666855, 32.443351) scale(-1, 1) translate(-56.666855, -32.443351)"/><path id="Fill-39" fill="#6A549E" d="M12.9155256,25.142184 L29.1567816,27.61344 L30.8275416,32.677128 L12.0526056,32.677128 C5.4540216,32.677128 0.0194616,28.711368 0.0194616,23.875344 L0.0194616,8.73936 C0.0194616,3.92904 5.3328456,2.494005e-14 12.0526056,2.494005e-14 L30.8899656,2.494005e-14 L29.1567816,5.06736 L12.9155256,7.663464 C11.4834456,7.916832 10.4369256,8.823816 10.3487976,9.98784 L10.3487976,22.799448 C10.3194216,23.919408 11.4246936,24.866784 12.9155256,25.142184"/><path id="Fill-59" fill="#6A549E" d="M60.1154136,0.0205632 C66.7103256,0.0205632 72.0273816,3.9275712 72.1448856,8.7415632 L72.1448856,23.9620032 C72.1448856,28.8788112 66.7103256,32.8041792 60.1154136,32.8041792 L41.1862536,32.8041792 L42.8606856,27.7368192 L59.1019416,25.1407152 C60.5633976,24.9093792 61.5768696,23.9620032 61.6980456,22.8200112 L61.6980456,9.9863712 C61.6980456,8.8223472 60.5927736,7.9153632 59.1019416,7.6656672 L42.8606856,5.0879232 L41.1862536,0.0205632 L60.1154136,0.0205632 Z"/><polygon id="Fill-25" fill="#6A549E" points="25.961 18.728 46.201 18.728 46.201 14.061 25.961 14.061"/></g></g></g></svg>