<svg xmlns="http://www.w3.org/2000/svg" xmlns:xlink="http://www.w3.org/1999/xlink" width="239" height="223" version="1.1" viewBox="0 0 239 223"><title>Message Page/Components/页面崩溃</title><desc>Created with Sketch.</desc><defs><rect id="path-1" width="240" height="240" x="0" y="0"/><radialGradient id="radialGradient-3" cx="50%" cy="-29.736%" r="129.736%" fx="50%" fy="-29.736%" gradientTransform="translate(0.500000,-0.297363),scale(0.328125,1.000000),rotate(90.000000),scale(1.000000,1.385870),translate(-0.500000,0.297363)"><stop offset="0%" stop-color="#E7E7E9"/><stop offset="100%" stop-color="#E7E7E9" stop-opacity="0"/></radialGradient><linearGradient id="linearGradient-4" x1="50%" x2="50%" y1="-24.978%" y2="41.641%"><stop offset="0%" stop-color="#CDCED1" stop-opacity=".5"/><stop offset="100%" stop-color="#CDCED1" stop-opacity="0"/></linearGradient><linearGradient id="linearGradient-5" x1="50%" x2="50%" y1="0%" y2="59.76%"><stop offset="0%" stop-color="#CDCED1" stop-opacity=".5"/><stop offset="100%" stop-color="#CDCED1" stop-opacity="0"/></linearGradient><linearGradient id="linearGradient-6" x1="55.803%" x2="50.996%" y1="50.665%" y2="49.335%"><stop offset="0%" stop-color="#070A1A" stop-opacity=".1"/><stop offset="100%" stop-color="#070A1A" stop-opacity="0"/></linearGradient><linearGradient id="linearGradient-7" x1="50%" x2="50%" y1="0%" y2="100%"><stop offset="0%" stop-color="#DBDCDF"/><stop offset="100%" stop-color="#B5B6BB"/></linearGradient><rect id="path-8" width="101.25" height="127.406" x="0" y="0" rx="2.7"/><linearGradient id="linearGradient-10" x1="50%" x2="50%" y1="0%" y2="100%"><stop offset="0%" stop-color="#F9F9FA"/><stop offset="100%" stop-color="#F0F1F2"/></linearGradient><linearGradient id="linearGradient-11" x1="100%" x2="0%" y1="23.554%" y2="76.446%"><stop offset="0%" stop-color="#F0F1F2"/><stop offset="100%" stop-color="#E7E7E9"/></linearGradient><linearGradient id="linearGradient-12" x1="100%" x2="0%" y1="48.488%" y2="51.512%"><stop offset="0%" stop-color="#F0F1F2"/><stop offset="100%" stop-color="#E7E7E9"/></linearGradient><linearGradient id="linearGradient-13" x1="100%" x2="0%" y1="49.015%" y2="50.985%"><stop offset="0%" stop-color="#F0F1F2"/><stop offset="100%" stop-color="#E7E7E9"/></linearGradient><linearGradient id="linearGradient-14" x1="100%" x2="0%" y1="47.663%" y2="52.337%"><stop offset="0%" stop-color="#F0F1F2"/><stop offset="100%" stop-color="#E7E7E9"/></linearGradient><linearGradient id="linearGradient-15" x1="100%" x2="0%" y1="49.308%" y2="50.692%"><stop offset="0%" stop-color="#F0F1F2"/><stop offset="100%" stop-color="#E7E7E9"/></linearGradient><linearGradient id="linearGradient-16" x1="50%" x2="50%" y1="-15.901%" y2="149.504%"><stop offset="0%" stop-color="#CBCCD0"/><stop offset="100%" stop-color="#9C9DA3"/></linearGradient><linearGradient id="linearGradient-17" x1="45.252%" x2="57.254%" y1="0%" y2="93.974%"><stop offset="0%" stop-color="#DBDCDF"/><stop offset="100%" stop-color="#B5B6BB"/></linearGradient><linearGradient id="linearGradient-18" x1="83.805%" x2="15.55%" y1="0%" y2="100%"><stop offset="0%" stop-color="#DBDCDF"/><stop offset="100%" stop-color="#9C9DA3"/></linearGradient><linearGradient id="linearGradient-19" x1="78.428%" x2="30.994%" y1="9.652%" y2="94.623%"><stop offset="0%" stop-color="#E7E7E9"/><stop offset="100%" stop-color="#F5F5F6"/></linearGradient><linearGradient id="linearGradient-20" x1="73.948%" x2="34.312%" y1="3.954%" y2="92.493%"><stop offset="0%" stop-color="#F5F5F6" stop-opacity=".5"/><stop offset="100%" stop-color="#FFF" stop-opacity=".4"/></linearGradient></defs><g id="0810-工单/耗时/代办事项/封网" fill="none" fill-rule="evenodd" stroke="none" stroke-width="1"><g id="代办事项" transform="translate(-1059.000000, -267.000000)"><g id="编组-2" transform="translate(948.000000, 90.000000)"><g id="Message-Page/Components/无数据"><g transform="translate(110.000000, 160.000000)"><mask id="mask-2" fill="#fff"><use xlink:href="#path-1"/></mask><ellipse id="椭圆形" cx="120" cy="200.625" fill="url(#radialGradient-3)" mask="url(#mask-2)" rx="120" ry="39.375"/><circle id="椭圆形" cx="28.594" cy="69.844" r="21.094" fill="url(#linearGradient-4)" mask="url(#mask-2)" opacity=".7"/><circle id="椭圆形复制-3" cx="223.594" cy="127.969" r="21.094" fill="url(#linearGradient-5)" mask="url(#mask-2)" opacity=".5"/><circle id="椭圆形复制" cx="73.594" cy="55.313" r="37.5" fill="url(#linearGradient-5)" mask="url(#mask-2)" opacity=".4"/><circle id="椭圆形复制-2" cx="182.813" cy="106.875" r="37.5" fill="url(#linearGradient-5)" mask="url(#mask-2)" opacity=".4"/><path id="矩形" fill="url(#linearGradient-6)" d="M-42.6951255,164.240575 L64.1798745,164.240575 C65.7331753,164.240575 67.9558825,164.464146 69.1444299,164.739935 L173.160445,188.875641 C174.348992,189.151429 174.053301,189.375 172.5,189.375 L65.625,189.375 C64.0716991,189.375 61.8489919,189.151429 60.6604445,188.875641 L-43.3555701,164.739935 C-44.5441175,164.464146 -44.2484264,164.240575 -42.6951255,164.240575 Z" mask="url(#mask-2)"/><g id="编组" mask="url(#mask-2)"><g transform="translate(69.375000, 57.187500)"><g id="编组-2"><g id="编组-4" transform="translate(0.000000, 5.062500)"><mask id="mask-9" fill="#fff"><use xlink:href="#path-8"/></mask><use id="蒙版" fill="url(#linearGradient-7)" fill-rule="nonzero" xlink:href="#path-8"/><rect id="矩形" width="89.438" height="112.219" x="5.906" y="7.594" fill="url(#linearGradient-10)" fill-rule="nonzero" mask="url(#mask-9)" rx="2.7"/><rect id="矩形" width="9.281" height="6.75" x="16.031" y="23.625" fill="url(#linearGradient-11)" mask="url(#mask-9)"/><rect id="矩形复制-2" width="9.281" height="6.75" x="16.031" y="41.344" fill="url(#linearGradient-11)" mask="url(#mask-9)"/><rect id="矩形复制-4" width="9.281" height="6.75" x="16.031" y="58.219" fill="url(#linearGradient-11)" mask="url(#mask-9)"/><rect id="矩形复制-8" width="9.281" height="6.75" x="16.031" y="75.938" fill="url(#linearGradient-11)" mask="url(#mask-9)"/><rect id="矩形复制" width="38.813" height="6.75" x="31.219" y="23.625" fill="url(#linearGradient-12)" mask="url(#mask-9)"/><rect id="矩形复制-3" width="48.094" height="6.75" x="31.219" y="41.344" fill="url(#linearGradient-13)" mask="url(#mask-9)"/><rect id="矩形复制-5" width="31.219" height="6.75" x="31.219" y="58.219" fill="url(#linearGradient-14)" mask="url(#mask-9)"/><rect id="矩形复制-9" width="57.375" height="6.75" x="31.219" y="75.938" fill="url(#linearGradient-15)" mask="url(#mask-9)"/><g fill="#070A1A" fill-opacity=".1" mask="url(#mask-9)"><g transform="translate(54.843750, 55.687500)"><polygon id="矩形" fill-rule="evenodd" points="39.778 15.002 45.684 15.002 45.684 40.315 39.778 40.315" transform="translate(42.730861, 27.658370) rotate(-67.000000) translate(-42.730861, -27.658370)"/><path id="椭圆形" fill-rule="nonzero" d="M17.296875,34.59375 C26.8496753,34.59375 34.59375,26.8496753 34.59375,17.296875 C34.59375,7.74407472 26.8496753,0 17.296875,0 C7.74407472,0 0,7.74407472 0,17.296875 C0,26.8496753 7.74407472,34.59375 17.296875,34.59375 Z M17.296875,29.53125 C10.5400163,29.53125 5.0625,24.0537337 5.0625,17.296875 C5.0625,10.5400163 10.5400163,5.0625 17.296875,5.0625 C24.0537337,5.0625 29.53125,10.5400163 29.53125,17.296875 C29.53125,24.0537337 24.0537337,29.53125 17.296875,29.53125 Z"/></g></g></g><rect id="矩形" width="38.813" height="15.188" x="31.219" y="0" fill="url(#linearGradient-16)" fill-rule="nonzero"/></g><g id="编组-3" transform="translate(56.531250, 58.218750)"><polygon id="矩形" fill="url(#linearGradient-17)" points="39.778 15.002 45.684 15.002 45.684 40.315 39.778 40.315" transform="translate(42.730861, 27.658370) rotate(-67.000000) translate(-42.730861, -27.658370)"/><path id="椭圆形" fill="url(#linearGradient-18)" fill-rule="nonzero" d="M17.296875,34.59375 C26.8496753,34.59375 34.59375,26.8496753 34.59375,17.296875 C34.59375,7.74407472 26.8496753,0 17.296875,0 C7.74407472,0 0,7.74407472 0,17.296875 C0,26.8496753 7.74407472,34.59375 17.296875,34.59375 Z M17.296875,29.53125 C10.5400163,29.53125 5.0625,24.0537337 5.0625,17.296875 C5.0625,10.5400163 10.5400163,5.0625 17.296875,5.0625 C24.0537337,5.0625 29.53125,10.5400163 29.53125,17.296875 C29.53125,24.0537337 24.0537337,29.53125 17.296875,29.53125 Z"/><path id="路径" fill="url(#linearGradient-19)" fill-rule="nonzero" d="M17.296875,29.53125 C10.5400163,29.53125 5.0625,24.0537337 5.0625,17.296875 C5.0625,10.5400163 10.5400163,5.0625 17.296875,5.0625 C24.0537337,5.0625 29.53125,10.5400163 29.53125,17.296875 C29.53125,24.0537337 24.0537337,29.53125 17.296875,29.53125 Z"/><path id="形状" fill="url(#linearGradient-20)" fill-rule="nonzero" d="M12.0680962,28.3607873 C7.92688864,26.4002102 5.0625,22.1830495 5.0625,17.296875 C5.0625,10.5400163 10.5400163,5.0625 17.296875,5.0625 C19.4441582,5.0625 21.4622375,5.61568788 23.2163736,6.58732447 L12.0680962,28.3607873 Z"/></g></g></g></g></g></g></g></g></svg>