<svg xmlns="http://www.w3.org/2000/svg" xmlns:xlink="http://www.w3.org/1999/xlink" width="239" height="223" version="1.1" viewBox="0 0 239 223"><title>Message Page/Components/页面崩溃</title><desc>Created with Sketch.</desc><defs><rect id="path-1" width="240" height="240" x="0" y="0"/><radialGradient id="radialGradient-3" cx="50%" cy="-29.736%" r="129.736%" fx="50%" fy="-29.736%" gradientTransform="translate(0.500000,-0.297363),scale(0.328125,1.000000),rotate(90.000000),scale(1.000000,1.385870),translate(-0.500000,0.297363)"><stop offset="0%" stop-color="#E7E7E9"/><stop offset="100%" stop-color="#E7E7E9" stop-opacity="0"/></radialGradient><linearGradient id="linearGradient-4" x1="50%" x2="50%" y1="-24.978%" y2="41.641%"><stop offset="0%" stop-color="#CDCED1" stop-opacity=".5"/><stop offset="100%" stop-color="#CDCED1" stop-opacity="0"/></linearGradient><linearGradient id="linearGradient-5" x1="50%" x2="50%" y1="0%" y2="59.76%"><stop offset="0%" stop-color="#CDCED1" stop-opacity=".5"/><stop offset="100%" stop-color="#CDCED1" stop-opacity="0"/></linearGradient><linearGradient id="linearGradient-6" x1="70.078%" x2="61.812%" y1="50.577%" y2="48.322%"><stop offset="0%" stop-color="#070A1A" stop-opacity=".1"/><stop offset="100%" stop-color="#070A1A" stop-opacity="0"/></linearGradient><linearGradient id="linearGradient-7" x1="39.451%" x2="50%" y1="29.928%" y2="67.826%"><stop offset="0%" stop-color="#B5B6BB"/><stop offset="100%" stop-color="#6A6C76"/></linearGradient><path id="path-8" d="M4.10823445,0 L107.233234,0 C109.822069,0 112.240407,1.95469273 112.634743,4.36592841 L124.058884,74.2207829 C124.45322,76.6320186 122.674227,78.5867113 120.085392,78.5867113 L16.9603923,78.5867113 C14.3715576,78.5867113 11.9532197,76.6320186 11.5588836,74.2207829 L0.134743226,4.36592841 C-0.259592929,1.95469273 1.51939969,0 4.10823445,0 Z"/><linearGradient id="linearGradient-10" x1="39.039%" x2="59.307%" y1="26.159%" y2="76.603%"><stop offset="0%" stop-color="#F0F1F2"/><stop offset="100%" stop-color="#B5B6BB"/></linearGradient><linearGradient id="linearGradient-11" x1="43.797%" x2="56.583%" y1="27.778%" y2="72.222%"><stop offset="0%" stop-color="#F5F5F6"/><stop offset="100%" stop-color="#CDCED1"/></linearGradient><linearGradient id="linearGradient-12" x1="61.212%" x2="50%" y1="47.684%" y2="52.316%"><stop offset="0%" stop-color="#FBFBFB"/><stop offset="100%" stop-color="#F5F5F6"/></linearGradient><linearGradient id="linearGradient-13" x1="61.212%" x2="50%" y1="49.086%" y2="50.914%"><stop offset="0%" stop-color="#FBFBFB"/><stop offset="100%" stop-color="#F5F5F6"/></linearGradient></defs><g id="0810-工单/耗时/代办事项/封网" fill="none" fill-rule="evenodd" stroke="none" stroke-width="1"><g id="代办事项" transform="translate(-449.000000, -267.000000)"><g id="编组-3" transform="translate(220.000000, 90.000000)"><g id="Message-Page/Components/欢迎登录"><g transform="translate(228.000000, 160.000000)"><mask id="mask-2" fill="#fff"><use xlink:href="#path-1"/></mask><ellipse id="椭圆形" cx="120" cy="200.625" fill="url(#radialGradient-3)" mask="url(#mask-2)" rx="120" ry="39.375"/><circle id="椭圆形" cx="28.594" cy="69.844" r="21.094" fill="url(#linearGradient-4)" mask="url(#mask-2)" opacity=".7"/><circle id="椭圆形复制-3" cx="223.594" cy="127.969" r="21.094" fill="url(#linearGradient-5)" mask="url(#mask-2)" opacity=".5"/><circle id="椭圆形复制" cx="73.594" cy="55.313" r="37.5" fill="url(#linearGradient-5)" mask="url(#mask-2)" opacity=".4"/><circle id="椭圆形复制-2" cx="182.813" cy="106.875" r="37.5" fill="url(#linearGradient-5)" mask="url(#mask-2)" opacity=".4"/><g id="编组-2" mask="url(#mask-2)"><g transform="translate(-11.250000, 74.062500)"><path id="矩形" fill="url(#linearGradient-6)" d="M2.07096962,94.5956227 L105.19597,94.5956227 C107.784804,94.5956227 111.79502,95.0875965 114.153036,95.694477 L182.466104,113.276146 C184.82412,113.883026 184.637005,114.375 182.04817,114.375 L78.9231705,114.375 C76.3343357,114.375 72.3241203,113.883026 69.9661037,113.276146 L1.65303633,95.694477 C-0.704980252,95.0875965 -0.517865146,94.5956227 2.07096962,94.5956227 Z"/><g id="形状结合" fill="none" stroke-width="1" transform="translate(61.962778, 35.788289)"><mask id="mask-9" fill="#fff"><use xlink:href="#path-8"/></mask><use id="蒙版" fill="url(#linearGradient-7)" xlink:href="#path-8"/><path fill="#070A1A" fill-opacity=".1" d="M-19.3746981,25.0193011 C-21.9735402,25.0193011 -23.1929342,26.351687 -22.0982909,27.9952684 L9.61414055,75.6107441 C10.7087838,77.2543254 13.7029452,78.5867113 16.3017873,78.5867113 L119.825422,78.5867113 C122.424264,78.5867113 123.643658,77.2543254 122.549015,75.6107441 L86.0797187,20.852947 C84.9850754,19.2093657 81.990914,17.8769798 79.3920719,17.8769798 L56.8050971,17.8769798 C54.206255,17.8769798 52.986861,19.2093657 54.0815043,20.852947 L54.8743151,22.0433339 C55.9689583,23.6869152 54.7495643,25.0193011 52.1507223,25.0193011 L-19.3746981,25.0193011 Z" mask="url(#mask-9)"/></g><path id="路径-30" fill="url(#linearGradient-10)" d="M64.8606705,12.83856 C68.1988862,12.83856 72.4678898,17.5386096 77.6676814,26.9387088 C82.867473,36.338808 86.3881652,49.6629628 88.2297581,66.9111734 L152.04817,66.9111734 C148.676071,37.8890384 144.33607,19.374002 139.028169,11.3660644 C133.720268,3.35812675 129.440921,-0.418328715 126.19013,0.0366980141 C115.28746,4.27760043 105.206553,7.36442469 95.9474099,9.29717079 C86.6882667,11.2299169 76.3260202,12.41038 64.8606705,12.83856 Z"/><path id="形状结合" fill="url(#linearGradient-11)" d="M183.55068,39.9264706 C186.149522,39.9264706 188.585086,41.778234 188.990666,44.0625 L200.740529,110.238971 C201.146108,112.523237 199.368118,114.375 196.769276,114.375 L93.2456407,114.375 C90.6467987,114.375 88.2112339,112.523237 87.8056545,110.238971 L74.2933121,34.1360294 C73.8877327,31.8517634 75.6657234,30 78.2645654,30 L100.85154,30 C103.450382,30 105.885947,31.8517634 106.291526,34.1360294 L106.585273,35.7904412 C106.990852,38.0747071 109.426417,39.9264706 112.025259,39.9264706 L183.55068,39.9264706 Z" transform="translate(137.516920, 72.187500) scale(-1, 1) translate(-137.516920, -72.187500)"/><path id="矩形" fill="url(#linearGradient-12)" d="M153.684173,62.8125 L179.934173,62.8125 C182.264124,62.8125 183.786001,64.4914322 183.333381,66.5625 C182.88076,68.6335678 180.62504,70.3125 178.295089,70.3125 L152.045089,70.3125 C149.715137,70.3125 148.19326,68.6335678 148.645881,66.5625 C149.098501,64.4914322 151.354221,62.8125 153.684173,62.8125 Z"/><path id="矩形备份" fill="url(#linearGradient-13)" d="M129.041131,79.6875 L175.916131,79.6875 C178.246083,79.6875 179.76796,81.3664322 179.315339,83.4375 C178.862719,85.5085678 176.606999,87.1875 174.277047,87.1875 L127.402047,87.1875 C125.072096,87.1875 123.550219,85.5085678 124.002839,83.4375 C124.45546,81.3664322 126.71118,79.6875 129.041131,79.6875 Z"/></g></g></g></g></g></g></g></svg>