<svg xmlns="http://www.w3.org/2000/svg" xmlns:xlink="http://www.w3.org/1999/xlink" width="64" height="64" version="1.1" viewBox="0 0 64 64"><title>fcck</title><desc>Created with Sketch.</desc><g id="fcck" fill="none" fill-rule="evenodd" stroke="none" stroke-width="1"><g id="Group" transform="translate(8.000000, 18.000000)"><path id="Polygon-Copy复制" fill="#FFF" fill-rule="nonzero" d="M25.5441698,1.31000396 L48.0188008,15.533405 C48.5981089,15.9000286 48.949262,16.5378277 48.949262,17.223401 L48.949262,26.1298166 C48.949262,26.8153899 48.5981089,27.453189 48.0188008,27.8198127 L25.5441698,42.0432137 C24.8910467,42.4565523 24.0582153,42.4565523 23.4050921,42.0432137 L0.930461133,27.8198127 C0.351153087,27.453189 4.85449493e-15,26.8153899 0,26.1298166 L0,17.223401 C1.69239833e-15,16.5378277 0.351153087,15.9000286 0.930461133,15.533405 L23.4050921,1.31000396 C24.0582153,0.896665346 24.8910467,0.896665346 25.5441698,1.31000396 Z"/><polygon id="Path-62" fill="#E5E5EC" fill-opacity=".4" points="24 31 48.712 15.702 48.712 26.702 30 39"/><path id="Polygon-Copy" fill-rule="nonzero" stroke="#E5E5EC" stroke-dasharray="1" stroke-width="1.2" d="M25.4934886,1.23630046 L47.9681196,14.5414187 C48.5762721,14.9014487 48.949262,15.5557117 48.949262,16.2624443 L48.949262,25.1668452 C48.949262,25.8321022 48.6184763,26.4538147 48.0667525,26.8255239 L25.5921215,41.9672076 C24.9166289,42.4223027 24.032633,42.4223027 23.3571404,41.9672076 L0.882509455,26.8255239 C0.3307857,26.4538147 3.19009495e-15,25.8321022 0,25.1668452 L0,16.2624443 C9.70657118e-17,15.5557117 0.372989854,14.9014487 0.981142372,14.5414187 L23.4557733,1.23630046 C24.0840876,0.864334602 24.8651744,0.864334602 25.4934886,1.23630046 Z"/><path id="Path" fill-rule="nonzero" stroke="#E5E5EC" stroke-dasharray="1" stroke-width="1.2" d="M4.54747351e-13,30.6165441 L22.9433758,15.3354157 C23.6042393,14.8952564 24.4629007,14.8877306 25.1313776,15.3162389 L49,30.6165441 L49,30.6165441" transform="translate(24.500000, 22.808272) scale(1, -1) translate(-24.500000, -22.808272)"/><path id="Path-57-Copy" fill-rule="nonzero" stroke="#E5E5EC" stroke-dasharray="1" d="M18,31 L24,39 L30,31" transform="translate(24.000000, 35.000000) scale(1, -1) translate(-24.000000, -35.000000)"/></g><g id="map-3" fill-rule="nonzero" transform="translate(9.000000, 5.000000)"><polygon id="Shape" fill="#F4F4FF" points="31.633 32.396 33.658 31.219 45.887 24.113 40.013 13.967 34.509 17.104 32.096 12.936 32.109 12.929 30.887 10.818 30.874 10.826 29.018 7.619 25.073 9.867 25.072 9.867 25.004 9.906 23.13 10.975 0 24.416 .766 25.742 5.884 22.825 11.376 32.31 16.88 29.173 21.988 37.996 22.757 37.554 25.466 35.98 25.466 35.98 27.87 34.582 27.87 34.582"/><polygon id="Shape" fill="#D2D2DD" points="0 24.416 23.13 10.975 29.018 7.619 5.888 21.061"/><polygon id="Shape" fill="#E2E2E9" points="5.888 21.061 29.018 7.619 34.509 17.104 11.379 30.546"/><path id="Shape" fill="#FFF" d="M22.8932075,9.57591038 C22.8932075,9.57591038 22.5738821,25.4738019 22.4637358,25.4738915 C22.3535896,25.4738915 22.0326509,9.57349057 22.0326509,9.57349057 C22.0324717,9.63766038 22.0747736,9.70200943 22.1596462,9.7509434 C22.3282264,9.84827358 22.6005896,9.84827358 22.768184,9.7509434 C22.8514434,9.70254717 22.8930283,9.63936321 22.8932075,9.57591038 Z"/><path id="Shape" fill="#E0E0E2" d="M22.7659434,9.39845755 C22.9345236,9.49578774 22.9354198,9.65352358 22.7679151,9.7509434 C22.6005,9.84827358 22.3279575,9.84827358 22.1593774,9.7509434 C21.9907972,9.65361321 21.9899906,9.49587736 22.1574057,9.39845755 C22.3287642,9.29888679 22.601217,9.30345755 22.7659434,9.39845755 Z"/><circle id="Oval" cx="22.463" cy="5.792" r="5.788" fill="#C0C0CF"/><circle id="Oval" cx="20.47" cy="4.252" r="1.75" fill="#EFEFF3"/><polygon id="Shape" fill="#D2D2DD" points="16.883 27.408 40.013 13.967 45.887 24.113 22.757 37.554"/><polygon id="Shape" fill="#D2D2DD" points="11.379 30.546 34.509 17.104 40.013 13.967 16.883 27.408"/><polygon id="Shape" fill="#AAA8BB" points="16.883 27.408 22.757 37.554 21.988 37.996 16.88 29.173 11.376 32.31 5.884 22.825 .766 25.742 0 24.416 5.888 21.061 11.379 30.546"/></g></g></svg>