<svg xmlns="http://www.w3.org/2000/svg" xmlns:xlink="http://www.w3.org/1999/xlink" id="图层_1" x="0" y="0" version="1.1" viewBox="0 0 100 80" xml:space="preserve" style="enable-background:new 0 0 100 80"><style type="text/css">.st0{fill:url(#XMLID_3_)}.st1{fill:url(#XMLID_4_)}.st2{fill:url(#XMLID_5_)}.st3{fill:url(#XMLID_6_)}.st4{fill:url(#XMLID_7_)}.st5{fill:url(#XMLID_8_)}.st6{fill:url(#XMLID_9_)}.st7{fill:url(#XMLID_1437_备份_1_)}.st8{fill:url(#XMLID_10_)}.st9{fill:url(#XMLID_11_)}.st10{opacity:.4;fill:#fbf8ff;enable-background:new}.st11{fill:url(#SVGID_1_)}.st12{fill:url(#SVGID_2_)}.st13{opacity:.5165;fill:url(#Shape_1_);enable-background:new}.st14{fill:#e2feff}.st15{fill:url(#XMLID_12_)}.st16{fill:url(#XMLID_13_)}.st17{fill:url(#XMLID_14_)}.st18{fill:url(#XMLID_15_)}.st19{fill:url(#XMLID_16_)}.st20{fill:url(#XMLID_17_)}.st21{fill:url(#XMLID_18_)}.st22{fill:url(#XMLID_19_)}.st23{fill:url(#XMLID_20_)}.st24{fill:url(#XMLID_21_)}.st25{fill:url(#XMLID_22_)}.st26{fill:url(#XMLID_23_)}.st27{fill:url(#XMLID_24_)}.st28{fill:url(#XMLID_25_)}.st29{fill:url(#XMLID_26_)}.st30{fill:url(#XMLID_27_)}.st31{fill:url(#XMLID_28_)}.st32{fill:url(#XMLID_29_)}.st33{fill:#ee585c}.st34{fill:url(#XMLID_30_)}.st35{fill:url(#XMLID_31_)}.st36{fill:#fff;fill-opacity:.4347}.st37{fill:url(#XMLID_32_)}.st38{fill:url(#Path_15_)}.st39{fill:url(#Path_16_)}.st40{fill:url(#Path_17_)}.st41{fill:url(#Path_18_)}.st42{fill:url(#Path_19_)}.st43{fill:url(#Path_20_)}.st44{fill:url(#Path_21_)}.st45{fill:url(#Path_22_)}.st46{fill:url(#Path_23_)}.st47{fill:url(#Path_24_)}.st48{fill:url(#Path_25_)}.st49{fill:url(#Path_26_)}.st50{fill:url(#Path_27_)}.st51{fill:url(#XMLID_33_)}.st52{fill:url(#Path_28_)}.st53{fill:url(#Path_29_)}</style><title>Icon/实物类/glht@2x</title><desc>Created with Sketch.</desc><linearGradient id="XMLID_3_" x1="-336.779" x2="-337.998" y1="424.792" y2="425.282" gradientTransform="matrix(31.4607 0 0 -23.2422 10651.2295 9937.5264)" gradientUnits="userSpaceOnUse"><stop offset="0" style="stop-color:#fff"/><stop offset="1" style="stop-color:#ab9be6"/></linearGradient><path id="XMLID_1445_" d="M20.5,65.1l0,4.8c0,0,0.3,0.1,1.3-0.4l28.3-15.8c0.6-0.4,1.8-1.2,1.8-1.9l0-2.4	c0,0-0.2-1.7-1.6-2.8L20.5,65.1z" class="st0"/><linearGradient id="XMLID_4_" x1="-328.88" x2="-330.1" y1="417.89" y2="418.579" gradientTransform="matrix(18.4089 0 0 -16.1363 6077.791 6810.9355)" gradientUnits="userSpaceOnUse"><stop offset="0" style="stop-color:#fff"/><stop offset="1" style="stop-color:#ab9be6"/></linearGradient><path id="XMLID_1444_" d="M19.5,69.8L3,60.7c-0.6-0.3-1-0.9-1-1.6l0-3c0,0,0-1.3,1.4-2.2l17,11.3l0,4.8	C20.3,70.1,19.5,69.8,19.5,69.8z" class="st1"/><linearGradient id="XMLID_5_" x1="-341.793" x2="-340.793" y1="427.3" y2="427.3" gradientTransform="matrix(48.4227 0 0 -27.1973 16553.207 11672.9521)" gradientUnits="userSpaceOnUse"><stop offset="0" style="stop-color:#573e94"/><stop offset="1" style="stop-color:#896cbf"/></linearGradient><path id="XMLID_1443_" d="M35.7,38.6l14.6,8.1c1,0.6,1,2,0,2.5L22.9,64.5c-1.5,0.8-3.3,0.8-4.8,0L3.4,56.4	c-1-0.6-1-2,0-2.5l27.5-15.3C32.4,37.7,34.2,37.7,35.7,38.6z" class="st2"/><linearGradient id="XMLID_6_" x1="-266.181" x2="-265.967" y1="407.736" y2="412.478" gradientTransform="matrix(4.2299 0 0 -12.3968 1158.4332 5115.3525)" gradientUnits="userSpaceOnUse"><stop offset="0" style="stop-color:#fff"/><stop offset="1" style="stop-color:#573e92"/></linearGradient><path id="XMLID_1440_" d="M31.2,7.6l0.3,10.7l2.9,1.6c0,0,1.5-9.6,0.9-10.3C34.6,8.7,33.7,6.8,31.2,7.6z" class="st3"/><linearGradient id="XMLID_7_" x1="-338.678" x2="-338.165" y1="431.882" y2="432.261" gradientTransform="matrix(34.3894 0 0 -42.5928 11658.873 18441.2305)" gradientUnits="userSpaceOnUse"><stop offset="0" style="stop-color:#472e83"/><stop offset="1" style="stop-color:#9f83d3"/></linearGradient><path id="XMLID_1439_" d="M40.4,23L29,16.9c0,0-10.9-2.3-19.8,14.6c-7.2,13.6,0,22,0,22l10.6,5.9L40.4,23z" class="st4"/><linearGradient id="XMLID_8_" x1="-329.328" x2="-330.524" y1="427.46" y2="425.564" gradientTransform="matrix(19.0889 0 0 -24.5392 6329.2134 10464.9805)" gradientUnits="userSpaceOnUse"><stop offset="0" style="stop-color:#fff"/><stop offset=".366" style="stop-color:#fbfbff"/><stop offset="1" style="stop-color:#4e3489"/></linearGradient><path id="XMLID_1438_" d="M19.4,26.7L16.2,25v-6.2c0,0,0.4-14.6,13.6-16.6c0,0,3.9,0.3,5.5,2.9c0,0-9.9,2.3-12.1,5.7	C21,14.3,19.4,26.7,19.4,26.7z" class="st5"/><linearGradient id="XMLID_9_" x1="-336.353" x2="-337.198" y1="431.641" y2="430.89" gradientTransform="matrix(29.8743 0 0 -38.7199 10092.5674 16738.5312)" gradientUnits="userSpaceOnUse"><stop offset="0" style="stop-color:#fff"/><stop offset="1" style="stop-color:#a494da"/></linearGradient><path id="XMLID_1437_" d="M19.3,35.4c-5.5,10.2-5,21.1,1.1,24.4S36,57.6,41.5,47.4s5-21.1-1.1-24.4S24.8,25.2,19.3,35.4	z" class="st6"/><linearGradient id="XMLID_1437_备份_1_" x1="-333.958" x2="-333.958" y1="429.419" y2="428.419" gradientTransform="matrix(24 0 0 -31 8045.8149 13338)" gradientUnits="userSpaceOnUse"><stop offset="0" style="stop-color:#fff;stop-opacity:.2666"/><stop offset="1" style="stop-color:#fff;stop-opacity:.2324"/></linearGradient><path id="XMLID_1437_备份" d="M21.9,36.7c4.4-8.1,12-12.6,16.9-9.9s5.3,11.4,0.9,19.6s-12,12.6-16.9,9.9	S17.5,44.8,21.9,36.7z M38.6,27.2c-4.6-2.5-12,1.8-16.3,9.7C18,44.8,18.4,53.3,23,55.8c4.6,2.5,12-1.8,16.3-9.7	C43.6,38.2,43.2,29.7,38.6,27.2z" class="st7"/><linearGradient id="XMLID_10_" x1="-327.928" x2="-329.402" y1="425.895" y2="423.977" gradientTransform="matrix(17.9432 0 0 -22.5359 5932.5898 9583.5137)" gradientUnits="userSpaceOnUse"><stop offset="0" style="stop-color:#fff"/><stop offset=".137" style="stop-color:#fbfbff"/><stop offset=".476" style="stop-color:#d3c6ff"/><stop offset=".514" style="stop-color:#d6c9ff"/><stop offset="1" style="stop-color:#5a4094"/></linearGradient><path id="XMLID_1436_" d="M22.2,25l-2.8,1.7v-8.6c0.4-3.8,3.1-9.2,8.6-12.4c6.8-4,9.3,1,9.3,4.1s0,11.6,0,11.6l-3-1.6	l0.1-9.3c0,0-1.1-4.6-5.4-2.4c-4.3,2.2-6.9,8.5-6.9,9.2S22.2,25,22.2,25z" class="st8"/><linearGradient id="XMLID_11_" x1="-292.662" x2="-292.876" y1="421.313" y2="419.141" gradientTransform="matrix(6.2665 0 0 -17.5983 1865.0657 7435.3979)" gradientUnits="userSpaceOnUse"><stop offset="0" style="stop-color:#78e7e9"/><stop offset="1" style="stop-color:#40e0e5"/></linearGradient><path id="XMLID_1435_" d="M28.4,39.9c0,0-3.2-2.7,1.6-6.2c0,0,5.1-1.6,1.8,4.3l1.5,9.5L27,51.2L28.4,39.9z" class="st9"/><polygon id="Shape" points="29.1 64.3 45 55.2 45 53.5 29.1 62.7" class="st10"/><linearGradient id="SVGID_1_" x1="-239.26" x2="-240.649" y1="340.123" y2="337.951" gradientTransform="matrix(3.2146 0 0 -3.5394 810.1899 1257.9391)" gradientUnits="userSpaceOnUse"><stop offset="0" style="stop-color:#94fff6"/><stop offset="1" style="stop-color:#40e5c0"/></linearGradient><polygon points="37.3 59.6 40.5 57.8 40.5 56.1 37.3 57.9" class="st11"/><linearGradient id="SVGID_2_" x1="-358.337" x2="-359.853" y1="471.152" y2="471.468" gradientTransform="matrix(-31.526 0 0 11.6237 -11282.2012 -5416.5371)" gradientUnits="userSpaceOnUse"><stop offset="0" style="stop-color:#f1f1ff;stop-opacity:.3765"/><stop offset="1" style="stop-color:#7159a8"/></linearGradient><path d="M38.8,56.9c0.2,0,0.3,0,0.5,0.1l16.5,9c1.1,0.6,2.6,0.7,3.7,0.1c0.7-0.4,2.1-1.5,2.9-2.1	c1.3-1,3.5-2.7,6.7-5.1c0.5,0.9,0.4,1.6-0.2,2.2c-1.4,1.4-5,4.2-7,5.7c-0.7,0.5-1.2,0.8-1.3,1c-1.7,1-4,1-5.8,0l-16.5-9	c-0.5-0.3-0.6-0.9-0.4-1.3C38.1,57.1,38.5,56.9,38.8,56.9z" class="st12"/><linearGradient id="Shape_1_" x1="-368.456" x2="-367.431" y1="474.408" y2="474.056" gradientTransform="matrix(-17.9388 0 0 10.6415 -6553.7036 -4984.4009)" gradientUnits="userSpaceOnUse"><stop offset="0" style="stop-color:#f3ffff;stop-opacity:0"/><stop offset=".415" style="stop-color:#f3ffff;stop-opacity:.6661"/><stop offset="1" style="stop-color:#e2feff;stop-opacity:0"/></linearGradient><path id="Shape_3_" d="M38.3,56.9c-0.1,0-0.2,0.1-0.3,0.2c-0.1,0.1,0,0.3,0.1,0.4l17.3,10c0.1,0.1,0.3,0,0.4-0.1	c0.1-0.1,0-0.3-0.1-0.4l-17.3-10C38.4,56.9,38.4,56.9,38.3,56.9z" class="st13"/><path d="M75.7,64.3c0.1,0,0.2,0.1,0.3,0.2c0.1,0.1,0,0.3-0.1,0.4l-9.2,5.6c-0.1,0.1-0.3,0-0.4-0.1	c-0.1-0.1,0-0.3,0.1-0.4l9.2-5.6C75.6,64.4,75.7,64.3,75.7,64.3z" class="st14"/><linearGradient id="XMLID_12_" x1="-321.896" x2="-321.83" y1="418.196" y2="419.245" gradientTransform="matrix(13.1014 0 0 -16.5 4285.7734 6936.377)" gradientUnits="userSpaceOnUse"><stop offset="0" style="stop-color:#644a9d"/><stop offset="1" style="stop-color:#482e83"/></linearGradient><polygon id="XMLID_520_" points="75.5 18.9 62.4 26.1 62.4 35.4 75.5 28.1" class="st15"/><linearGradient id="XMLID_13_" x1="-329.273" x2="-328.648" y1="418.315" y2="417.378" gradientTransform="matrix(17.8158 0 0 -15.7874 5931.0967 6631.4062)" gradientUnits="userSpaceOnUse"><stop offset="0" style="stop-color:#e3def3"/><stop offset="0" style="stop-color:#e3def3"/><stop offset="1" style="stop-color:#8d74be"/></linearGradient><polygon id="XMLID_519_" points="62.4 35.4 67.4 43.9 80.2 36.3 75.5 28.1" class="st16"/><linearGradient id="XMLID_14_" x1="-321.244" x2="-321.335" y1="431.491" y2="430.291" gradientTransform="matrix(12.8274 0 0 -37.1976 4195.1494 16081.4512)" gradientUnits="userSpaceOnUse"><stop offset="0" style="stop-color:#573e94"/><stop offset="1" style="stop-color:#a78fd3"/></linearGradient><polygon id="XMLID_518_" points="67.4 43.9 67.4 73.5 80.2 66.1 80.2 36.3" class="st17"/><linearGradient id="XMLID_15_" x1="-323.105" x2="-322.908" y1="392.857" y2="393.193" gradientTransform="matrix(13.7051 0 0 -7.5551 4495.8662 2991.3164)" gradientUnits="userSpaceOnUse"><stop offset="0" style="stop-color:#dad3ef"/><stop offset="1" style="stop-color:#7a5fb1"/></linearGradient><polygon id="XMLID_517_" points="75.5 18.9 74.9 18.5 61.8 25.8 62.4 26.1" class="st18"/><linearGradient id="XMLID_16_" x1="-286.037" x2="-286.132" y1="421.15" y2="420.388" gradientTransform="matrix(5.5921 0 0 -18.1532 1664.4224 7672.3535)" gradientUnits="userSpaceOnUse"><stop offset="0" style="stop-color:#c0b5e5"/><stop offset="1" style="stop-color:#bfb5e5"/></linearGradient><polyline id="XMLID_516_" points="61.8 25.8 61.8 36.5 66.4 43.9 67.4 43.9 62.4 35.4 62.4 26.1" class="st19"/><linearGradient id="XMLID_17_" x1="-291.924" x2="-292" y1="429.466" y2="428.034" gradientTransform="matrix(6.1776 0 0 -29.578 1868.1876 12728.8105)" gradientUnits="userSpaceOnUse"><stop offset="0" style="stop-color:#c2b8e6"/><stop offset="1" style="stop-color:#bdb2e4"/></linearGradient><polygon id="XMLID_515_" points="66.4 43.9 66.4 72.1 61.2 69.1 61.2 69.9 67.4 73.5 67.4 43.9" class="st20"/><linearGradient id="XMLID_18_" x1="-279.056" x2="-281.041" y1="380.861" y2="379.594" gradientTransform="matrix(5.1547 0 0 -5.9335 1511.2041 2323.8398)" gradientUnits="userSpaceOnUse"><stop offset="0" style="stop-color:#e1dcf3"/><stop offset="1" style="stop-color:#8f77c0"/></linearGradient><polygon id="XMLID_514_" points="61.2 69.1 66.4 66.2 66.4 72.1" class="st21"/><linearGradient id="XMLID_19_" x1="-315.099" x2="-314.767" y1="413.743" y2="412.666" gradientTransform="matrix(10.3817 0 0 -13.0747 3337.9587 5427.543)" gradientUnits="userSpaceOnUse"><stop offset="0" style="stop-color:#fff"/><stop offset="1" style="stop-color:#b7a7d8"/></linearGradient><polygon id="XMLID_512_" points="74.1 20.6 63.8 26.3 63.8 33.7 74.1 27.9" class="st22"/><linearGradient id="XMLID_20_" x1="-307.681" x2="-309.364" y1="371.375" y2="370.602" gradientTransform="matrix(8.6715 0 0 -5.1728 2742.4102 1947.0819)" gradientUnits="userSpaceOnUse"><stop offset="0" style="stop-color:#94fff6"/><stop offset="1" style="stop-color:#58d7cf"/></linearGradient><path id="XMLID_511_" d="M70.1,24.9c0.4-0.1,0.8,0.2,1.2,0.9l0.4,0.6c0.1,0.1,0.2,0.3,0.2,0.3c0.1,0.2,0.2,0.2,0.3,0.2	c0.1-0.1,0.3-0.4,0.4-0.8c0.1-0.2,0.2-0.3,0.3-0.4l0.1-0.1l0.6-0.3c0.1,0,0.1,0,0.2,0c0,0,0,0.1,0,0.1l0,0l-0.6,0.3	c-0.2,0.1-0.3,0.2-0.3,0.4c-0.1,0.4-0.3,0.8-0.5,0.9c-0.2,0.1-0.4,0-0.6-0.2l-0.1-0.2l-0.1-0.2c0-0.1-0.2-0.3-0.2-0.4	c-0.4-0.7-0.8-1-1.1-0.9c-0.3,0.1-0.5,0.7-0.8,2.1l-0.2,0.9c-0.2,1.1-0.4,1.6-0.7,1.8c-0.2,0.2-0.5,0.1-0.8-0.1	c-0.1-0.1-0.3-0.2-0.5-0.4l-0.4-0.5l-0.2-0.2c0,0,0,0-0.1-0.1c-0.1-0.1-0.2-0.2-0.3-0.1c-0.1,0.1-0.1,0.2-0.2,0.3L66,29.2	c-0.2,0.5-0.4,0.8-0.8,0.9c-0.1,0-0.1,0-0.1-0.1c0-0.1,0-0.1,0.1-0.1c0.3-0.1,0.5-0.2,0.6-0.6l0.1-0.3c0.1-0.3,0.2-0.5,0.3-0.6	c0.2-0.1,0.3-0.1,0.5,0.1c0.1,0,0.1,0.1,0.2,0.2l0.4,0.4c0.2,0.3,0.4,0.4,0.6,0.5c0.2,0.2,0.4,0.2,0.6,0.1c0.2-0.1,0.4-0.7,0.6-1.9	l0.1-0.4C69.4,25.7,69.6,25.1,70.1,24.9z" class="st23"/><linearGradient id="XMLID_21_" x1="-214.636" x2="-216.319" y1="243.322" y2="242.277" gradientTransform="matrix(2.6193 0 0 -1.8171 635.876 464.2276)" gradientUnits="userSpaceOnUse"><stop offset="0" style="stop-color:#94fff6"/><stop offset="1" style="stop-color:#58d7cf"/></linearGradient><polygon id="XMLID_381_" points="70.7 23.7 73.3 22.2 73.3 21.9 70.7 23.4" class="st24"/><linearGradient id="XMLID_22_" x1="-144.814" x2="-146.497" y1="166.485" y2="165.228" gradientTransform="matrix(1.719 0 0 -1.3078 322.5577 240.5256)" gradientUnits="userSpaceOnUse"><stop offset="0" style="stop-color:#94fff6"/><stop offset="1" style="stop-color:#58d7cf"/></linearGradient><polygon id="XMLID_380_" points="71.6 24.1 73.3 23.1 73.3 22.8 71.6 23.8" class="st25"/><linearGradient id="XMLID_23_" x1="-216.535" x2="-215.721" y1="302.569" y2="283.687" gradientTransform="matrix(2.6313 0 0 -2.339 658.5774 744.388)" gradientUnits="userSpaceOnUse"><stop offset="0" style="stop-color:#62479b"/><stop offset="1" style="stop-color:#6950a8"/></linearGradient><path id="XMLID_378_" d="M91.9,71.9c0,0-0.3,1.2-0.6,1.5c-0.4,0.4-1.6,0.9-2.1,0.8c0,0,1.1-1.2,1.4-1.8L91.9,71.9z" class="st26"/><linearGradient id="XMLID_24_" x1="-281.08" x2="-282.017" y1="392.646" y2="391.346" gradientTransform="matrix(5.2284 0 0 -7.3592 1561.0959 2953.2358)" gradientUnits="userSpaceOnUse"><stop offset="0" style="stop-color:#fff"/><stop offset="1" style="stop-color:#7155a6"/></linearGradient><path id="XMLID_377_" d="M85.5,69.7c0.3,2,1.7,4,3.1,4.4c1.4,0.4,2.3-0.8,2-2.8c-0.3-2-1.7-4-3.1-4.4	C86,66.5,85.1,67.7,85.5,69.7z" class="st27"/><linearGradient id="XMLID_25_" x1="-286.551" x2="-286.551" y1="377.786" y2="378.786" gradientTransform="matrix(5.6337 0 0 -5.7704 1702.2008 2252.728)" gradientUnits="userSpaceOnUse"><stop offset="0" style="stop-color:#60e1d7"/><stop offset="1" style="stop-color:#70e8e2"/></linearGradient><path id="XMLID_376_" d="M90.7,72.8c0,0-0.2-3.3-2.9-5.3c0,0-2.5-1.7-2.8,1.3l5.3,3.8L90.7,72.8z" class="st28"/><linearGradient id="XMLID_26_" x1="-290.727" x2="-290.799" y1="384.387" y2="383.471" gradientTransform="matrix(6.0369 0 0 -6.4543 1843.8339 2553.6602)" gradientUnits="userSpaceOnUse"><stop offset="0" style="stop-color:#12ccbd"/><stop offset="1" style="stop-color:#54ffca"/></linearGradient><path id="XMLID_375_" d="M92,72.2c0,0,0.1-1.8-1.3-3.7c-1.4-1.9-2.8-2.3-3.4-2.1l-1.3,0.7c0,0,3.5-0.3,4.7,5.7L92,72.2	z" class="st29"/><linearGradient id="XMLID_27_" x1="-198.655" x2="-197.841" y1="231.548" y2="219.584" gradientTransform="matrix(2.3187 0 0 -1.6408 538.8489 442.2623)" gradientUnits="userSpaceOnUse"><stop offset="0" style="stop-color:#62479b"/><stop offset="1" style="stop-color:#6950a8"/></linearGradient><path id="XMLID_374_" d="M80.9,77.7c0,0-0.2,0.7-0.4,0.9c-0.3,0.2-1.3,0.9-1.9,0.7c0,0,0.7-0.6,1-1.2L80.9,77.7z" class="st30"/><linearGradient id="XMLID_28_" x1="-312.032" x2="-313.786" y1="400.196" y2="399.076" gradientTransform="matrix(9.8843 0 0 -8.7402 3181.0535 3562.9656)" gradientUnits="userSpaceOnUse"><stop offset="0" style="stop-color:#fff"/><stop offset="1" style="stop-color:#9f87cd"/></linearGradient><path id="XMLID_373_" d="M90.3,72.5c0,0-0.7-0.4-1.3-0.2c-0.5,0.2-2.6,1.3-2.6,1.3s-1,0.4-2.5,0c0,0-1.8-0.3-1.2,1.1	c0,0-0.2,0.9-1.9,1.6l-0.3-1.4c0,0,0.1-2.5,3.7-2.7c3.5-0.2,1.3-3.5,1.3-3.5s0.2-1.8,1.8-1.1C88.8,68.5,90,70.7,90.3,72.5z" class="st31"/><linearGradient id="XMLID_29_" x1="-281.083" x2="-282.021" y1="392.642" y2="391.342" gradientTransform="matrix(5.2287 0 0 -7.3587 1550.4 2958.1665)" gradientUnits="userSpaceOnUse"><stop offset="0" style="stop-color:#fff"/><stop offset="1" style="stop-color:#7155a6"/></linearGradient><path id="XMLID_372_" d="M74.7,74.8c0.3,2,1.7,4,3.1,4.4c1.4,0.4,2.3-0.8,2-2.8c-0.3-2-1.7-4-3.1-4.4	C75.2,71.6,74.4,72.9,74.7,74.8z" class="st32"/><path id="XMLID_371_" d="M81.1,77.6l-1.4,0.6c0,0,0.2-2.3-2.3-5c0,0-0.9-0.9-2.3-0.8c0,0,0.9-0.9,2.2-0.6	C78.5,72,80.9,74.4,81.1,77.6z" class="st33"/><linearGradient id="XMLID_30_" x1="-286.299" x2="-286.299" y1="380.803" y2="381.803" gradientTransform="matrix(5.6109 0 0 -6.0645 1683.3632 2387.6006)" gradientUnits="userSpaceOnUse"><stop offset="0" style="stop-color:#60e1d7"/><stop offset="1" style="stop-color:#70e8e2"/></linearGradient><path id="XMLID_370_" d="M74.2,74.2l0.5,0.1c0,0,0.1-2,1.5-1.4c0.3,0.1,0.6,0.3,1,0.6c1.1,0.9,2.2,2.5,2.1,4.3l0.4,0.4	c0,0,0.6-3-2.2-5.2C74.7,70.8,74.2,73.6,74.2,74.2z" class="st34"/><linearGradient id="XMLID_31_" x1="-317.977" x2="-317.873" y1="386.662" y2="387.022" gradientTransform="matrix(11.4115 0 0 -6.6894 3711.8154 2659.5981)" gradientUnits="userSpaceOnUse"><stop offset="0" style="stop-color:#7e65b2"/><stop offset="1" style="stop-color:#856cb8"/></linearGradient><path id="XMLID_369_" d="M86,68.6l3.6,2.6c0,0-2.8,1.4-3.1,1.5c-0.3,0.1-1.3,0.5-2.6,0c0,0-1.4-0.2-1.4,0.7	c0,0.9-0.1,1.1-0.4,1.3c-0.3,0.2-1.5,0.6-1.5,0.6l-2.4-3c0,0,0.6-0.4,1.4-0.3c0.8,0.1,2.5,0.4,2.5-0.3c0-0.8-0.1-0.9,0.3-1.3	C82.8,69.8,86,68.6,86,68.6z" class="st35"/><path id="XMLID_368_" d="M75.6,75.3c0.2,1.2,1.1,2.5,1.9,2.7c0.9,0.3,1.4-0.5,1.2-1.7c-0.2-1.2-1.1-2.5-1.9-2.7	C76,73.3,75.4,74.1,75.6,75.3z" class="st36"/><linearGradient id="XMLID_32_" x1="-9.947" x2="-9.635" y1="212.597" y2="188.64" gradientTransform="matrix(1.0301 0 0 -1.45 87.1916 355.5494)" gradientUnits="userSpaceOnUse"><stop offset="0" style="stop-color:#fff"/><stop offset="1" style="stop-color:#6c4faa"/></linearGradient><path id="XMLID_367_" d="M76.7,75.7c0.1,0.4,0.3,0.8,0.6,0.9c0.3,0.1,0.5-0.2,0.4-0.5c-0.1-0.4-0.3-0.8-0.6-0.9	C76.8,75,76.6,75.3,76.7,75.7z" class="st37"/><linearGradient id="Path_15_" x1="-285.554" x2="-286.174" y1="322.115" y2="322.443" gradientTransform="matrix(5.5555 0 0 -3.0354 1666.6862 1051.2393)" gradientUnits="userSpaceOnUse"><stop offset="0" style="stop-color:#282a7a"/><stop offset="1" style="stop-color:#514fc5"/></linearGradient><path id="Path" d="M82.3,73.5c0,0,0.1,0.7-0.2,1s-1.8,0.1-2.9-0.4c-1.1-0.5-2.3-1.3-2.4-1.5c-0.1-0.2,0-0.7,0.2-0.9	S82.3,73.5,82.3,73.5z" class="st38"/><linearGradient id="Path_16_" x1="-283.115" x2="-283.735" y1="313.187" y2="313.493" gradientTransform="matrix(5.3518 0 0 -2.82 1595.7627 955.8801)" gradientUnits="userSpaceOnUse"><stop offset="0" style="stop-color:#282a7a"/><stop offset="1" style="stop-color:#514fc5"/></linearGradient><path id="Path_1_" d="M82.1,72.3c0,0,0.8,1.3-0.2,1.7c-1.2,0.5-5.3-1.6-4.8-2.4c0.4-0.5,1.3-0.3,2.7-0.3	C81.3,71.3,82.1,72.3,82.1,72.3z" class="st39"/><linearGradient id="Path_17_" x1="-285.554" x2="-286.174" y1="322.124" y2="322.452" gradientTransform="matrix(5.5555 0 0 -3.0357 1673.5708 1048.9926)" gradientUnits="userSpaceOnUse"><stop offset="0" style="stop-color:#282a7a"/><stop offset="1" style="stop-color:#514fc5"/></linearGradient><path id="Path_2_" d="M89.2,71.1c0,0,0.1,0.7-0.2,1c-0.4,0.3-1.8,0.1-2.9-0.4c-1.1-0.5-2.3-1.3-2.4-1.5	c-0.1-0.2,0-0.7,0.2-0.9C84.1,69.1,89.2,71.1,89.2,71.1z" class="st40"/><linearGradient id="Path_18_" x1="-283.115" x2="-283.735" y1="313.187" y2="313.493" gradientTransform="matrix(5.3518 0 0 -2.82 1602.6466 953.5325)" gradientUnits="userSpaceOnUse"><stop offset="0" style="stop-color:#282a7a"/><stop offset="1" style="stop-color:#514fc5"/></linearGradient><path id="Path_3_" d="M88.9,69.9c0,0,0.8,1.3-0.2,1.7c-1.2,0.5-5.3-1.6-4.8-2.4c0.4-0.5,1.3-0.3,2.7-0.3	C88.1,69,88.9,69.9,88.9,69.9z" class="st41"/><linearGradient id="Path_19_" x1="-316.37" x2="-316.438" y1="429.238" y2="430.338" gradientTransform="matrix(10.8743 0 0 -33.0998 3524.6155 14277.7139)" gradientUnits="userSpaceOnUse"><stop offset="0" style="stop-color:#282a7a"/><stop offset="1" style="stop-color:#514fc5"/></linearGradient><path id="Path_4_" d="M88.8,40.1c0,0,1.1,4.5,0,8.4c-0.8,2.8,0,21.4,0,21.4s-0.8,0.9-2.4,0.1c0,0-0.8-6.9-1-12.8	c-0.2-4.3-0.2-7.8-0.2-8.4l-1.6,0.7c0,0-1.2,6-1.2,8.9s-0.1,14-0.1,14s-0.9,0.7-2.1,0c0,0-1.3-11.7-1.6-14.8	c-0.3-3.1,1.1-15.6,1.1-15.6S85.7,38.5,88.8,40.1z" class="st42"/><linearGradient id="Path_20_" x1="-229.313" x2="-229.403" y1="346.738" y2="348.297" gradientTransform="matrix(2.9294 0 0 -3.8636 754.9734 1365.9324)" gradientUnits="userSpaceOnUse"><stop offset="0" style="stop-color:#ffece6"/><stop offset="1" style="stop-color:#fcdaca"/></linearGradient><path id="Path_5_" d="M81.6,22.3c0,0,0.4,2.3,0.5,2.6c0.1,0.3,2.1-0.9,2.4-1.4l-0.4-2.4C84.2,21.1,82.4,21.4,81.6,22.3	z" class="st43"/><linearGradient id="Path_21_" x1="-122.07" x2="-121.914" y1="330.007" y2="331.349" gradientTransform="matrix(1.5402 0 0 -3.2838 270.1299 1110.7581)" gradientUnits="userSpaceOnUse"><stop offset="0" style="stop-color:#ffece6"/><stop offset="1" style="stop-color:#fccbb5"/></linearGradient><path id="Path_6_" d="M81.6,22.3l0.5,2.6c0,0,0.9-1.3,1-2.5C83.2,22.4,83.2,20.7,81.6,22.3z" class="st44"/><linearGradient id="Path_22_" x1="-251.182" x2="-251.303" y1="318.942" y2="319.748" gradientTransform="matrix(3.5882 0 0 -2.9654 984.8793 972.0399)" gradientUnits="userSpaceOnUse"><stop offset="0" style="stop-color:#08aeaf"/><stop offset="1" style="stop-color:#4bcfd9"/></linearGradient><path id="Path_7_" d="M84.5,23.3c0,0,0.5,0.5,0.7,0.8c0,0-1.3,2.3-3.6,2.1l0.5-1.4L84.5,23.3z" class="st45"/><linearGradient id="Path_23_" x1="-315.452" x2="-315.486" y1="421.743" y2="422.925" gradientTransform="matrix(10.5635 0 0 -19.8631 3416.2817 8424.7578)" gradientUnits="userSpaceOnUse"><stop offset="0" style="stop-color:#08aeaf"/><stop offset="1" style="stop-color:#4bcfd9"/></linearGradient><path id="Path_8_" d="M85.2,24.1c0,0,1.8-0.1,2.2,1.9c0.4,2,1.3,7,1.3,8.7c0,1.7,0.7,4.8,0.4,6.1	c-0.2,1.1-2.2,1.5-4.5,2.6c-3,1.3-5.1,0.2-5.7-0.3c-0.7-0.6,0.2-3.6,0.2-5c0-1.3-0.1-4,0-4.8c0.1-0.8-0.1-4.6,2.6-7	C83.2,24.8,85.2,24.1,85.2,24.1z" class="st46"/><linearGradient id="Path_24_" x1="-200.591" x2="-200.982" y1="415.873" y2="415.522" gradientTransform="matrix(2.3547 0 0 -14.7788 551.4049 6187.4453)" gradientUnits="userSpaceOnUse"><stop offset="0" style="stop-color:#08aeaf"/><stop offset="1" style="stop-color:#4bcfd9"/></linearGradient><path id="Path_9_" d="M81,29c0,0-0.6,6.4-0.7,8.6c-0.1,1.7,0.5,5.7,0,6.2c0,0-0.5-0.1-1.2-0.6c-0.9-0.6-0.1-3.4,0-4.2	c0-0.6-0.1-2.9,0-4.6c0-2,0.3-5,0.7-5.3C80.1,28.9,81,29,81,29z" class="st47"/><linearGradient id="Path_25_" x1="-283.288" x2="-283.431" y1="375.685" y2="377.243" gradientTransform="matrix(5.3605 0 0 -5.6119 1600.7749 2134.0393)" gradientUnits="userSpaceOnUse"><stop offset="0" style="stop-color:#ffece6"/><stop offset="1" style="stop-color:#fcdaca"/></linearGradient><path id="Path_10_" d="M79,18.2c0,0,0.4,4.9,1.3,5.5c1,0.6,2.9-0.9,2.9-0.9s2.1-2.1,0.6-3.3S79,18.2,79,18.2z" class="st48"/><linearGradient id="Path_26_" x1="-299.406" x2="-299.887" y1="395.856" y2="396.956" gradientTransform="matrix(7.1419 0 0 -8.1066 2222.1399 3230.5618)" gradientUnits="userSpaceOnUse"><stop offset="0" style="stop-color:#282a7a"/><stop offset="1" style="stop-color:#514fc5"/></linearGradient><path id="Path_11_" d="M85.2,20.8c-0.4,0.6-0.9,2.2-1.7,1.8c-1.2-0.6-1.2-1.6-1.2-2.5c0-0.7-0.6-1.1-0.8-0.1	c-0.1,0.6,0,0.8-0.3,0.8c-0.3,0-0.2-0.3-0.3-0.8s-0.4-1-1-1.1c-0.6-0.1-1.1-0.6-1.2-1.4c-0.1-1.9,1.6-2.8,3.5-2.8	c2.5,0,3.4,1.4,3.5,2.4C85.8,18.2,85.8,19.8,85.2,20.8z" class="st49"/><linearGradient id="Path_27_" x1="-27.241" x2="-27.186" y1="379.677" y2="381.154" gradientTransform="matrix(1.0861 0 0 -6.0247 115.2645 2346.282)" gradientUnits="userSpaceOnUse"><stop offset="0" style="stop-color:#3d7add"/><stop offset="1" style="stop-color:#1f096c"/></linearGradient><polygon id="Path_12_" points="85.2 48.9 86.3 48.4 85.3 54.4" class="st50"/><linearGradient id="XMLID_33_" x1="-291.537" x2="-291.611" y1="384.734" y2="383.817" gradientTransform="matrix(6.1226 0 0 -6.4947 1862.7823 2576.9019)" gradientUnits="userSpaceOnUse"><stop offset="0" style="stop-color:#12ccbd"/><stop offset="1" style="stop-color:#54ffca"/></linearGradient><path id="XMLID_365_" d="M81.1,77.6l-1.4,0.6c0,0,0.6-2.9-2.4-5.2c-0.5-0.4-1.2-1-2.4-0.7c0,0,1-0.8,2.2-0.6	C78.5,72,80.9,74.4,81.1,77.6z" class="st51"/><linearGradient id="Path_28_" x1="-324.242" x2="-325.692" y1="407.959" y2="407.453" gradientTransform="matrix(14.8416 0 0 -10.9727 4898.9507 4506.4229)" gradientUnits="userSpaceOnUse"><stop offset="0" style="stop-color:#08aeaf"/><stop offset="1" style="stop-color:#4bcfd9"/></linearGradient><path id="Path_13_" d="M81.7,26.5c0,0,1,0,1.3,1.5c0.3,1.5-2.6,7.5-3.6,8.4c-3,2.8-11.2-0.7-11.2-0.7v-2.2	c0,0,8.1,2.6,9.4,0.1C79.1,30.7,79.2,26.3,81.7,26.5z" class="st52"/><linearGradient id="Path_29_" x1="-228.192" x2="-228.306" y1="334.142" y2="335.7" gradientTransform="matrix(2.9028 0 0 -3.4024 729.4059 1173.5911)" gradientUnits="userSpaceOnUse"><stop offset="0" style="stop-color:#ffece6"/><stop offset="1" style="stop-color:#fcdaca"/></linearGradient><path id="Path_14_" d="M68.2,33.7c0-0.1-0.7-0.5-0.8-0.6c-0.1-0.2-0.1-0.7-0.4-0.7c-0.2,0-0.1,0.6-0.2,0.8	c-0.1,0.1-1.3-1.2-1.5-1c-0.1,0.3,0.7,1.3,1,1.5c-0.1,0.3,0,1.1,0.5,1.3c0.5,0.3,1.4,0.7,1.4,0.5V33.7z" class="st53"/></svg>