<svg xmlns="http://www.w3.org/2000/svg" xmlns:xlink="http://www.w3.org/1999/xlink" id="图层_1" x="0" y="0" version="1.1" viewBox="0 0 100 100" xml:space="preserve" style="enable-background:new 0 0 100 100"><style type="text/css">.st0{fill:url(#Path_9_)}.st1{fill:url(#Path_10_)}.st2{fill:url(#Path_11_)}.st3,.st4{enable-background:new}.st3{opacity:.2;fill:none;stroke:#fff;stroke-width:.6875}.st4{opacity:.4;fill:url(#Path-Copy-3_1_)}.st5,.st6{fill:none}.st6{opacity:.8;stroke:#fbf8ff;stroke-width:.55;enable-background:new}.st7{fill:url(#Path_12_)}.st8{fill:url(#Path_13_)}.st9{fill:url(#Combined-Shape_1_)}.st10{opacity:.1353;fill:url(#Path-Copy-2_1_);enable-background:new}.st11{fill:url(#Path-Copy-4_1_)}</style><title>Icon/实物类/kyy</title><desc>Created with Sketch.</desc><linearGradient id="Path_9_" x1="-341.749" x2="-342.969" y1="439.799" y2="440.1" gradientTransform="matrix(56.9226 0 0 -32.9783 19550.582 14589.7363)" gradientUnits="userSpaceOnUse"><stop offset="0" style="stop-color:#fff"/><stop offset="1" style="stop-color:#ab9be6"/></linearGradient><path id="Path" d="M53.3,66.9c-2.1-1.2-5.7-1-8.1,0.3L33.6,74l4.6,1.6l10.9,11.2l0.3,11.7c1.5,0,3.1-0.4,4.3-1.1	l34.6-17.5l0.6-0.3c1.3-0.7,1.7-1.5,1.7-3V65.5L53.3,66.9z" class="st0"/><linearGradient id="Path_10_" x1="-339.211" x2="-340.43" y1="439.524" y2="440.115" gradientTransform="matrix(40.3514 0 0 -32.7519 13742.6885 14487.8467)" gradientUnits="userSpaceOnUse"><stop offset="0" style="stop-color:#fff"/><stop offset="1" style="stop-color:#ab9be6"/></linearGradient><path id="Path_1_" d="M29.2,76.5L9.3,65.7L9,78c0.1,0.7,0.5,1.3,1.4,1.8l35.2,17.8c1,0.6,2.4,0.8,3.8,0.8l-0.3-11.7	L29.2,76.5z" class="st1"/><linearGradient id="Path_11_" x1="-344.701" x2="-343.701" y1="441.361" y2="441.361" gradientTransform="matrix(81.1806 0 0 -38.1902 27992.3809 16923.4258)" gradientUnits="userSpaceOnUse"><stop offset="0" style="stop-color:#6a549e"/><stop offset="1" style="stop-color:#896cbf"/></linearGradient><path id="Path_2_" d="M45.9,86L10.7,68.2c-2.1-1.2-1.8-3.3,0.6-4.7l34.6-13.7c2.4-1.4,6-1.5,8.1-0.3l35.2,14.1	c2.1,1.2,1.8,3.3-0.6,4.7L54,85.7C51.6,87.1,48,87.2,45.9,86z" class="st2"/><path id="Path_3_" d="M46.5,81.2L18.1,67.8c-1.7-1-1.5-2.8,0.5-3.9l28-10.9c2-1.2,5.1-1.3,6.8-0.3L81,64.1	c1.7,1,1.5,2.8-0.5,3.9L53.3,80.9C51.3,82,48.3,82.2,46.5,81.2z" class="st3"/><linearGradient id="Path-Copy-3_1_" x1="-343.963" x2="-343.963" y1="444.225" y2="445.322" gradientTransform="matrix(76.9226 0 0 -60.5564 26507.0801 26982.9414)" gradientUnits="userSpaceOnUse"><stop offset="0" style="stop-color:#735ba7"/><stop offset="1" style="stop-color:#fff;stop-opacity:0"/></linearGradient><path id="Path-Copy-3" d="M47.1,81L18.1,67.6c-0.9-0.4-1.6-1.3-1.7-2.3L10.1,21l0,0H87l-5.1,45	c-0.1,0.7-0.5,1.3-1.1,1.6L52.1,81C50.5,81.7,48.7,81.7,47.1,81z" class="st4"/><path id="Path_4_" d="M64.1,80.7c-2.2-1-3.7,0.4-3.7,2.4c0,0,0.5,1.4,0.7,3.5" class="st5"/><path id="Path_5_" d="M76.6,82.1v3.8" class="st6"/><linearGradient id="Path_12_" x1="-286.59" x2="-285.596" y1="395.171" y2="393.784" gradientTransform="matrix(5.6022 0 0 -6.2468 1679.786 2547.3533)" gradientUnits="userSpaceOnUse"><stop offset="0" style="stop-color:#33c3ca"/><stop offset="1" style="stop-color:#2bbfc5"/></linearGradient><polygon id="Path_6_" points="73.6 85.3 79.2 82 79.2 79 73.6 82.3" class="st7"/><path id="Path_7_" d="M21.2,82.1v3.8" class="st6"/><linearGradient id="Path_13_" x1="-411.183" x2="-410.189" y1="395.171" y2="393.784" gradientTransform="matrix(-5.6022 0 0 -6.2468 -2280.0461 2547.3533)" gradientUnits="userSpaceOnUse"><stop offset="0" style="stop-color:#33c3ca"/><stop offset="1" style="stop-color:#2bbfc5"/></linearGradient><polygon id="Path_8_" points="24.1 85.3 18.5 82 18.5 79 24.1 82.3" class="st8"/><linearGradient id="Combined-Shape_1_" x1="-340.999" x2="-339.763" y1="445.867" y2="444.481" gradientTransform="matrix(50.5376 10.7421 10.7421 -50.5376 12472.8076 26206.0156)" gradientUnits="userSpaceOnUse"><stop offset="0" style="stop-color:#33c3ca"/><stop offset="1" style="stop-color:#2bbfc5"/></linearGradient><path id="Combined-Shape" d="M69.9,27.6c1.5,0.3,2.5,1.8,2.1,3.3c-0.1,0.4-0.3,0.8-0.5,1.2c0,0,0,0,0,0.1	c2.8,5.3,3.7,11.5,2.4,17.5c-3,14-16.7,22.9-30.6,19.9c-5-1.1-9.4-3.5-12.9-7c-0.4-0.4-0.4-1.1,0-1.5s1.1-0.4,1.5,0	c3.2,3.2,7.3,5.5,11.8,6.4c12.8,2.7,25.4-5.4,28.1-18.2c1.2-5.5,0.3-11.1-2.2-16l0,0c-0.3,0-0.6,0-0.9,0c-1.5-0.3-2.5-1.8-2.1-3.3	C67,28.2,68.4,27.2,69.9,27.6z M54.1,18.9c4.2,0.9,8.1,2.8,11.3,5.6c0.5,0.4,0.5,1.1,0.1,1.5c-0.4,0.5-1.1,0.5-1.5,0.1	c-3-2.5-6.5-4.3-10.4-5.1c-12.8-2.7-25.4,5.4-28.1,18.2c-1.1,5.1-0.5,10.2,1.7,14.8l0,0.1c0.2,0,0.4,0,0.6,0.1	c1.5,0.3,2.5,1.8,2.1,3.3s-1.8,2.5-3.3,2.1c-1.5-0.3-2.5-1.8-2.1-3.3c0.1-0.5,0.4-1,0.8-1.4c0,0,0,0,0,0c-2.3-5-3-10.7-1.8-16.2	C26.5,24.9,40.2,16,54.1,18.9z M27.5,56c-0.6-0.1-1.1,0.2-1.2,0.8s0.2,1.1,0.8,1.2c0.6,0.1,1.1-0.2,1.2-0.8	C28.5,56.6,28.1,56.1,27.5,56z M69.5,29.2c-0.6-0.1-1.1,0.2-1.2,0.8c-0.1,0.6,0.2,1.1,0.8,1.2c0.6,0.1,1.1-0.2,1.2-0.8	C70.4,29.9,70.1,29.3,69.5,29.2z" class="st9"/><linearGradient id="Path-Copy-2_1_" x1="-336.069" x2="-337.551" y1="439.282" y2="437.792" gradientTransform="matrix(29.9667 0 0 -29.1212 10143.9004 12813.167)" gradientUnits="userSpaceOnUse"><stop offset="0" style="stop-color:#fff;stop-opacity:0"/><stop offset=".517" style="stop-color:#31c2c9"/><stop offset="1" style="stop-color:#fff;stop-opacity:0"/></linearGradient><path id="Path-Copy-2" d="M45.1,28.5c2.9,0,5.3,2.1,5.7,4.9h5.5c2.5,0,4.5,2,4.5,4.5v5c2.1,0.8,3.7,2.9,3.7,5.3	c0,2.4-1.5,4.5-3.7,5.4c-0.2,2.3-2.2,4-4.5,4H43.2l1-2.8c0.1-0.2,0.1-0.3,0.1-0.5c0-0.9-0.7-1.6-1.6-1.6s-1.6,0.7-1.6,1.6	c0,0.2,0,0.4,0.1,0.5l1,2.8H39c-2.5,0-4.5-2-4.5-4.5V37.9c0-2.5,2-4.5,4.5-4.5h0.4C39.9,30.6,42.3,28.5,45.1,28.5z" class="st10"/><linearGradient id="Path-Copy-4_1_" x1="-337.445" x2="-336.209" y1="438.993" y2="437.684" gradientTransform="matrix(29.9667 0 0 -29.1212 10143.9004 12813.167)" gradientUnits="userSpaceOnUse"><stop offset="0" style="stop-color:#33c3ca"/><stop offset="1" style="stop-color:#2bbfc5"/></linearGradient><path id="Path-Copy-4" d="M46.2,55.6h10.2c1.3,0,2.4-1.1,2.4-2.4v-1.2c2,0,3.7-1.6,3.7-3.7c0-2-1.6-3.7-3.7-3.7v-6.7	c0-1.3-1.1-2.4-2.4-2.4h-7.7c0.1-0.4,0.2-0.8,0.2-1.2c0-2-1.6-3.7-3.7-3.7c-2,0-3.7,1.6-3.7,3.7c0,0.4,0.1,0.8,0.2,1.2H39	c-1.3,0-2.4,1.1-2.4,2.4v15.2c0,1.3,1.1,2.4,2.4,2.4h0.2c-0.1-0.4-0.2-0.8-0.2-1.2c0-2,1.6-3.7,3.7-3.7c2,0,3.7,1.6,3.7,3.7	C46.4,54.8,46.3,55.2,46.2,55.6z M45.1,28.5c2.9,0,5.3,2.1,5.7,4.9h5.5c2.5,0,4.5,2,4.5,4.5v5c2.1,0.8,3.7,2.9,3.7,5.3	c0,2.4-1.5,4.5-3.7,5.4c-0.2,2.3-2.2,4-4.5,4H43.2l1-2.8c0.1-0.2,0.1-0.3,0.1-0.5c0-0.9-0.7-1.6-1.6-1.6s-1.6,0.7-1.6,1.6	c0,0.2,0,0.4,0.1,0.5l1,2.8H39c-2.5,0-4.5-2-4.5-4.5V37.9c0-2.5,2-4.5,4.5-4.5h0.4C39.9,30.6,42.3,28.5,45.1,28.5z" class="st11"/></svg>