<svg xmlns="http://www.w3.org/2000/svg" xmlns:xlink="http://www.w3.org/1999/xlink" width="199" height="186" version="1.1" viewBox="0 0 199 186"><title>ts</title><desc>Created with Sketch.</desc><defs><rect id="path-1" width="200" height="200" x="0" y="0"/><radialGradient id="radialGradient-3" cx="50%" cy="-29.736%" r="129.736%" fx="50%" fy="-29.736%" gradientTransform="translate(0.500000,-0.297363),scale(0.328125,1.000000),rotate(90.000000),scale(1.000000,1.385870),translate(-0.500000,0.297363)"><stop offset="0%" stop-color="#E7E7E9"/><stop offset="100%" stop-color="#E7E7E9" stop-opacity="0"/></radialGradient><linearGradient id="linearGradient-4" x1="50%" x2="50%" y1="-24.978%" y2="41.641%"><stop offset="0%" stop-color="#CDCED1" stop-opacity=".5"/><stop offset="100%" stop-color="#CDCED1" stop-opacity="0"/></linearGradient><linearGradient id="linearGradient-5" x1="50%" x2="50%" y1="0%" y2="59.76%"><stop offset="0%" stop-color="#CDCED1" stop-opacity=".5"/><stop offset="100%" stop-color="#CDCED1" stop-opacity="0"/></linearGradient><linearGradient id="linearGradient-6" x1="36.709%" x2="26.076%" y1="48.683%" y2="50.487%"><stop offset="0%" stop-color="#070A1A" stop-opacity="0"/><stop offset="100%" stop-color="#070A1A" stop-opacity=".1"/></linearGradient><linearGradient id="linearGradient-7" x1="50%" x2="50%" y1="0%" y2="100%"><stop offset="0%" stop-color="#F5F5F6"/><stop offset="100%" stop-color="#F0F1F2"/></linearGradient><linearGradient id="linearGradient-8" x1="50%" x2="50%" y1="0%" y2="100%"><stop offset="0%" stop-color="#C1DAA5"/><stop offset="100%" stop-color="#8DB36C"/></linearGradient><linearGradient id="linearGradient-9" x1="50%" x2="50%" y1="0%" y2="100%"><stop offset="0%" stop-color="#DBDCDF"/><stop offset="100%" stop-color="#B5B6BB"/></linearGradient><linearGradient id="linearGradient-10" x1="50%" x2="50%" y1="0%" y2="100%"><stop offset="0%" stop-color="#F9F9FA"/><stop offset="100%" stop-color="#F0F1F2"/></linearGradient></defs><g id="0813-api市场/云管/关联" fill="none" fill-rule="evenodd" stroke="none" stroke-width="1"><g id="ts" transform="translate(-1.000000, -14.000000)"><g id="Message-Page/Components/操作成功"><mask id="mask-2" fill="#fff"><use xlink:href="#path-1"/></mask><ellipse id="椭圆形" cx="100" cy="167.188" fill="url(#radialGradient-3)" mask="url(#mask-2)" rx="100" ry="32.813"/><circle id="椭圆形" cx="23.828" cy="58.203" r="17.578" fill="url(#linearGradient-4)" mask="url(#mask-2)" opacity=".7"/><circle id="椭圆形复制-3" cx="186.328" cy="87.109" r="17.578" fill="url(#linearGradient-5)" mask="url(#mask-2)" opacity=".5"/><circle id="椭圆形复制" cx="61.328" cy="46.094" r="31.25" fill="url(#linearGradient-5)" mask="url(#mask-2)" opacity=".4"/><circle id="椭圆形复制-2" cx="152.344" cy="69.531" r="31.25" fill="url(#linearGradient-5)" mask="url(#mask-2)" opacity=".4"/><path id="矩形" fill="url(#linearGradient-6)" d="M43.4601335,142.96875 L110.647633,142.96875 C111.942051,142.96875 111.761924,143.189029 110.24531,143.460756 L31.5245285,157.564932 C30.0079138,157.836659 27.7291221,158.056938 26.4347047,158.056938 L-40.3504715,157.8125 C-41.6448889,157.8125 -41.8670862,157.836659 -40.3504715,157.564932 L38.3703097,143.460756 C39.8869244,143.189029 42.1657161,142.96875 43.4601335,142.96875 Z" mask="url(#mask-2)" transform="translate(35.052827, 150.512844) scale(-1, 1) translate(-35.052827, -150.512844)"/><g id="编组-3" mask="url(#mask-2)"><g transform="translate(37.500000, 64.062500)"><rect id="矩形" width="125" height="93.75" x="0" y="0" fill="url(#linearGradient-7)" rx="4"/><g id="Group-11" fill="none" stroke-width="1" transform="translate(46.093750, 32.812500)"><circle id="Oval" cx="17.188" cy="17.188" r="17.188" fill="url(#linearGradient-8)"/><path id="路径" fill="#F6F6F7" fill-rule="nonzero" d="M28.6323922,10.050687 L26.8568148,8.10105642 C26.6809953,7.9065795 26.4406422,7.80303908 26.1891873,7.81318057 C25.9377324,7.82332686 25.6960148,7.94576177 25.5177696,8.15298774 L14.3680096,20.3713895 L9.65363511,15.39587 C9.28911714,15.0191377 8.69389683,15.0226733 8.3241174,15.4010415 L6.52948502,17.222759 C6.1604104,17.5964807 6.15635668,18.2007968 6.5203906,18.5812712 L13.6798651,26.2341883 C14.0483487,26.641375 14.6452106,26.6748104 15.0189103,26.3064585 L28.6224316,11.5743636 C28.8021917,11.3690558 28.9043536,11.0922827 28.90625,10.805796 C28.9080941,10.5193041 28.8095179,10.2473729 28.6323922,10.050687 Z"/></g><g id="编组" fill="none" stroke-width="1"><path id="矩形" fill="url(#linearGradient-9)" fill-rule="nonzero" d="M4,0 L121,0 C123.209139,-8.49901461e-16 125,1.790861 125,4 L125,13.28125 L125,13.28125 L0,13.28125 L0,4 C-2.705415e-16,1.790861 1.790861,4.05812251e-16 4,0 Z"/><circle id="椭圆形" cx="8.984" cy="6.641" r="2.734" fill="url(#linearGradient-10)"/><circle id="椭圆形备份" cx="17.578" cy="6.641" r="2.734" fill="url(#linearGradient-10)"/><circle id="椭圆形备份-2" cx="26.172" cy="6.641" r="2.734" fill="url(#linearGradient-10)"/></g></g></g></g></g></g></svg>