<svg xmlns="http://www.w3.org/2000/svg" xmlns:xlink="http://www.w3.org/1999/xlink" style="enable-background:new 0 0 100 100" id="图层_1" x="0" y="0" version="1.1" viewBox="0 0 100 100" xml:space="preserve"><style type="text/css">.st0{fill:url(#Path_6_)}.st1{opacity:.8;fill:none;stroke:#fbf8ff;stroke-width:.51;enable-background:new}.st2{fill:url(#Path_7_)}.st3{fill:url(#Path_8_)}.st4{fill:url(#Path_9_)}.st5,.st6,.st7{enable-background:new}.st5{opacity:.2;fill:none;stroke:#fff;stroke-width:.5288}.st6{opacity:.4;fill:url(#Path-Copy-3_1_)}.st7{opacity:.1353;fill:url(#Path-13_1_)}.st8{fill:url(#Networking_1_)}</style><title>Icon/实物类/ywyy</title><desc>Created with Sketch.</desc><linearGradient id="Path_6_" x1="-343.119" x2="-344.339" y1="443.341" y2="443.762" gradientTransform="matrix(73.3637 0 0 -50.2649 25268.9473 22367.5234)" gradientUnits="userSpaceOnUse"><stop style="stop-color:#fff" offset="0"/><stop style="stop-color:#ab9be6" offset="1"/></linearGradient><path id="Path" d="M14,68L14,68c0.1-5.4,3.7-10.7,10.8-14.8C39.2,45,62.4,45,76.7,53.2c7.2,4.1,10.7,9.5,10.7,14.9	l0,6.9c0.1,5.8-3.1,11.7-10.8,16.1c-14.4,8.2-37.6,8.3-51.9,0.1C16.9,86.8,13.9,81.1,14,75L14,68z" class="st0"/><path id="Path_1_" d="M74.2,89.6v3.2" class="st1"/><linearGradient id="Path_7_" x1="-275.142" x2="-274.152" y1="385.072" y2="383.686" gradientTransform="matrix(4.7327 0 0 -5.2906 1374.4304 2124.0327)" gradientUnits="userSpaceOnUse"><stop style="stop-color:#33c3ca" offset="0"/><stop style="stop-color:#2bbfc5" offset="1"/></linearGradient><path id="Path_2_" d="M71.7,92.3c1-0.5,1.8-0.8,2.4-1.2s1.3-0.8,2.4-1.6V87c-1.2,0.8-2.1,1.4-2.7,1.8	c-0.6,0.4-1.3,0.7-2,0.9V92.3z" class="st2"/><path id="Path_3_" d="M27.2,89.6v3.2" class="st1"/><linearGradient id="Path_8_" x1="-422.627" x2="-421.638" y1="385.072" y2="383.686" gradientTransform="matrix(-4.7327 0 0 -5.2906 -1970.96 2124.0327)" gradientUnits="userSpaceOnUse"><stop style="stop-color:#33c3ca" offset="0"/><stop style="stop-color:#2bbfc5" offset="1"/></linearGradient><path id="Path_4_" d="M29.7,92.3c-1-0.5-1.8-0.8-2.4-1.2S26,90.3,25,89.5V87c1.2,0.8,2.1,1.4,2.7,1.8	c0.6,0.4,1.3,0.7,2,0.9V92.3z" class="st3"/><linearGradient id="Path_9_" x1="-344.243" x2="-343.243" y1="442.19" y2="442.19" gradientTransform="matrix(73.3584 0 0 -41.9996 25267.1055 18639.8848)" gradientUnits="userSpaceOnUse"><stop style="stop-color:#6a549e" offset="0"/><stop style="stop-color:#896cbf" offset="1"/></linearGradient><path id="Path_5_" d="M24.7,82.9c14.3,8.2,37.5,8.1,51.9-0.1c14.4-8.2,14.4-21.5,0.2-29.7C62.4,45,39.2,45,24.9,53.2	C10.5,61.5,10.4,74.8,24.7,82.9z" class="st4"/><path id="Path-Copy" d="M29.3,79.7c12.4,6.9,31.6,7,44.1,0c12.5-7,12.6-18.3,0.1-25.2c-12.4-6.9-31.6-7-44.1,0	C16.9,61.5,16.9,72.8,29.3,79.7z" class="st5"/><linearGradient id="Path-Copy-3_1_" x1="-344.006" x2="-344.006" y1="444.142" y2="445.239" gradientTransform="matrix(77.6597 0 0 -59.6977 26764.7109 26599.6738)" gradientUnits="userSpaceOnUse"><stop style="stop-color:#735ba7" offset="0"/><stop style="stop-color:#fff;stop-opacity:0" offset="1"/></linearGradient><path id="Path-Copy-3" d="M20.1,67.4c0,0-3.2-14.1-9.6-42.4h77.7c-3.8,28.3-5.7,42.4-5.6,42.4	c0,7.9-11.5,17.3-31.3,17.3S20.8,75.5,20.1,67.4z" class="st6"/><linearGradient id="Path-13_1_" x1="-338.97" x2="-340.387" y1="442.73" y2="441.151" gradientTransform="matrix(39.9702 0 0 -40.8785 13630.5479 18112.1699)" gradientUnits="userSpaceOnUse"><stop style="stop-color:#fff;stop-opacity:0" offset="0"/><stop style="stop-color:#31c2c9" offset=".517"/><stop style="stop-color:#fff;stop-opacity:0" offset="1"/></linearGradient><polygon id="Path-13" points="30 40.1 32.2 38.2 34.8 38.2 40.2 32.3 40.2 28.8 42.3 25 46 25.9 65.4 29.6 69.6 32.6 69.9 61.3 67.7 64.3 51 65.8 36 65.1 32.9 61.9" class="st7"/><linearGradient id="Networking_1_" x1="-340.677" x2="-339.502" y1="442.956" y2="441.57" gradientTransform="matrix(42 0 0 -43.089 14338 19108.1504)" gradientUnits="userSpaceOnUse"><stop style="stop-color:#33c3ca" offset="0"/><stop style="stop-color:#2bbfc5" offset="1"/></linearGradient><path id="Networking" d="M65,39c-1.1,0-2-0.3-2.8-0.9l-6.9,7C55.7,46,56,47,56,48c0,1.1-0.3,2.2-0.9,3.1l8.9,7.2	c0.7-0.8,1.8-1.3,2.9-1.3c2.2,0,4,1.8,4,4s-1.8,4-4,4s-4-1.8-4-4c0-0.3,0-0.6,0.1-0.9l-9.3-7.5c-1,0.9-2.4,1.4-3.8,1.4	c-1.4,0-2.6-0.5-3.7-1.3l-4.8,6.4c0.2,0.4,0.3,0.9,0.4,1.4l5.3,1c0.6-1.5,2-2.5,3.7-2.5c2.2,0,4,1.8,4,4s-1.8,4-4,4	c-2,0-3.7-1.5-3.9-3.5l-5.3-1c-0.6,2-2.5,3.5-4.7,3.5c-2.8,0-5-2.2-5-5c0-2.8,2.2-5,5-5c1.4,0,2.6,0.6,3.5,1.5l4.5-6.1	c-0.6-1-1-2.1-1-3.4c0-2.2,1.2-4.1,3-5.2L43.8,34c-0.9,0-1.8-0.3-2.5-0.8l-4.8,5.9c0.3,0.6,0.5,1.3,0.5,2c0,2.2-1.8,4-4,4	s-4-1.8-4-4c0-2.2,1.8-4,4-4c0.8,0,1.5,0.2,2.1,0.6l4.8-5.8C39.3,31,39,30.1,39,29c0-2.8,2.2-5,5-5s5,2.2,5,5c0,2.1-1.3,3.9-3.2,4.7	l3,8.5c0.4-0.1,0.8-0.1,1.1-0.1c1.6,0,3,0.6,4.1,1.6l6.8-6.9C60.3,36,60,35,60,34c0-2.8,2.2-5,5-5s5,2.2,5,5S67.8,39,65,39L65,39z M67,63.1c1.1,0,2-0.9,2-2c0-1.1-0.9-2-2-2s-2,0.9-2,2C65,62.2,65.9,63.1,67,63.1L67,63.1z M51,65.1c1.1,0,2-0.9,2-2s-0.9-2-2-2	s-2,0.9-2,2S49.9,65.1,51,65.1L51,65.1z M37,58.1c-1.7,0-3,1.3-3,3s1.3,3,3,3c1.7,0,3-1.3,3-3S38.7,58.1,37,58.1L37,58.1z M33,39	c-1.1,0-2,0.9-2,2c0,1.1,0.9,2,2,2s2-0.9,2-2C35,39.9,34.1,39,33,39L33,39z M47,29c0-1.7-1.3-3-3-3s-3,1.3-3,3c0,1.7,1.3,3,3,3	S47,30.7,47,29L47,29z M50,44c-2.2,0-4,1.8-4,4s1.8,4,4,4s4-1.8,4-4S52.2,44,50,44L50,44z M65,31c-1.7,0-3,1.3-3,3c0,1.7,1.3,3,3,3	c1.7,0,3-1.3,3-3C68,32.4,66.7,31,65,31L65,31z" class="st8"/></svg>